<svg width="85" height="84" viewBox="0 0 85 84" fill="none" xmlns="http://www.w3.org/2000/svg">
<path d="M82.7963 34.7021C83.1898 37.0632 85 39.3456 85 41.8641C85 44.3039 83.2685 46.665 82.7963 48.9474C82.4028 51.3873 83.2685 54.1419 82.4028 56.4243C81.537 58.7067 79.0972 60.2808 77.9167 62.3271C76.6574 64.4521 76.5787 67.3641 75.0046 69.1743C73.4306 71.0632 70.5972 71.6928 68.787 73.1882C66.8981 74.7622 65.7963 77.4382 63.75 78.6188C61.625 79.7993 58.7917 79.4845 56.5093 80.2715C54.2269 81.0585 52.2593 83.2623 49.8982 83.6558C47.537 84.0493 45.0185 82.7113 42.5 82.7113C39.9815 82.7113 37.463 84.0493 35.1019 83.6558C32.662 83.2623 30.6945 81.0585 28.4907 80.2715C26.2083 79.4058 23.2963 79.7993 21.25 78.6188C19.125 77.3595 18.0232 74.6835 16.213 73.1882C14.3241 71.6141 11.4908 70.9845 9.99538 69.1743C8.42131 67.2854 8.34259 64.4521 7.08333 62.3271C5.90278 60.2808 3.46297 58.7067 2.59722 56.4243C1.81019 54.1419 2.67593 51.3873 2.20371 48.9474C1.81019 46.5863 0 44.3039 0 41.8641C0 39.4243 1.73148 37.0632 2.20371 34.7021C2.59722 32.2623 1.73148 29.5076 2.59722 27.3039C3.46297 25.0215 5.90278 23.4474 7.08333 21.4011C8.34259 19.2761 8.42131 16.4428 9.99538 14.5539C11.5695 12.665 14.4028 12.0354 16.213 10.54C18.1019 8.96596 19.2037 6.29004 21.25 5.10949C23.375 3.92893 26.2083 4.24374 28.4907 3.4567C30.7732 2.66967 32.7407 0.465961 35.1019 0.0724422C37.463 -0.321076 39.9815 1.0169 42.5 1.0169C44.9398 1.0169 47.537 -0.321076 49.8982 0.0724422C52.338 0.465961 54.3056 2.59096 56.5093 3.4567C58.7917 4.32244 61.625 3.92893 63.75 5.10949C65.875 6.36875 66.9768 8.96596 68.787 10.54C70.6759 12.1141 73.5093 12.7437 75.0046 14.5539C76.5787 16.4428 76.6574 19.2761 77.9167 21.4011C79.0972 23.5261 81.537 25.0215 82.4028 27.3039C83.2685 29.5863 82.4028 32.341 82.7963 34.7021ZM80.4352 41.8641C80.4352 40.5261 80.3565 39.2669 80.1991 38.0076C78.2315 18.8039 62.0972 3.85022 42.3426 3.85022C22.6667 3.85022 6.45371 18.8039 4.48612 38.0076C4.32871 39.2669 4.25001 40.6049 4.25001 41.8641C4.25001 52.7252 8.81482 62.4845 16.0556 69.4104C21.0139 74.1326 27.3102 77.5169 34.2361 79.091C36.8333 79.6419 39.5093 79.9567 42.3426 79.9567C53.2037 79.9567 62.963 75.3919 69.8889 68.1511C72.8796 65.003 75.3194 61.3826 77.1296 57.3687C79.2546 52.5678 80.4352 47.3734 80.4352 41.8641Z" fill="#231F20"/>
<path d="M78.9397 38.0077V38.0864C78.9397 38.5586 78.6249 38.8734 78.1527 38.9521C77.6804 39.0308 77.2869 38.6373 77.2082 38.1651C77.1295 37.6929 77.523 37.2993 77.9952 37.2206C78.4675 37.2206 78.861 37.5355 78.9397 38.0077Z" fill="#231F20"/>
<path d="M78.1527 44.7762C78.6249 44.8549 78.9397 45.2484 78.9397 45.7206C78.861 46.1929 78.4675 46.5077 77.9953 46.5077C77.5231 46.5077 77.2083 46.0355 77.2083 45.5632C77.287 45.091 77.6805 44.6975 78.1527 44.7762Z" fill="#231F20"/>
<path d="M78.3102 40.9984C78.7824 40.9984 79.1759 41.3919 79.1759 41.8641C79.1759 42.3363 78.7824 42.7298 78.3102 42.7298C77.838 42.7298 77.4445 42.3363 77.4445 41.8641C77.4445 41.3919 77.838 40.9984 78.3102 40.9984Z" fill="#231F20"/>
<path d="M78.3102 34.2299C78.3889 34.7021 78.0741 35.1743 77.6806 35.253C77.2083 35.3317 76.8148 35.0956 76.6574 34.6234C76.5787 34.1512 76.8935 33.7576 77.287 33.6002C77.7593 33.5215 78.2315 33.7577 78.3102 34.2299Z" fill="#231F20"/>
<path d="M77.6804 48.4752C78.1527 48.5539 78.4675 49.0261 78.3101 49.4984C78.2314 49.9706 77.7591 50.2854 77.2869 50.128C76.8147 50.0493 76.4999 49.5771 76.6573 49.1048C76.736 48.7113 77.2082 48.3965 77.6804 48.4752Z" fill="#231F20"/>
<path d="M77.3658 30.5308C77.5232 31.003 77.2871 31.4752 76.8148 31.6326C76.3426 31.79 75.8704 31.5539 75.713 31.0817C75.5556 30.6095 75.7917 30.1372 76.2639 29.9798C76.7361 29.8224 77.2084 30.0586 77.3658 30.5308Z" fill="#231F20"/>
<path d="M76.8148 52.1743C77.2871 52.3317 77.5232 52.8039 77.3658 53.2761C77.2084 53.7484 76.7361 53.9845 76.2639 53.8271C75.7917 53.6697 75.5556 53.1974 75.713 52.7252C75.8704 52.253 76.3426 52.0169 76.8148 52.1743Z" fill="#231F20"/>
<path d="M75.949 26.9104C76.1064 27.3827 75.949 27.8549 75.4767 28.0123C75.0832 28.1697 74.5323 28.0123 74.3749 27.5401C74.2175 27.1466 74.3749 26.5956 74.7684 26.4382C75.2406 26.2808 75.7916 26.5169 75.949 26.9104Z" fill="#231F20"/>
<path d="M75.5556 55.6373C76.0278 55.7947 76.1852 56.3456 76.0278 56.7391C75.8704 57.1326 75.3195 57.3688 74.926 57.1326C74.5324 56.9752 74.2963 56.4243 74.5324 56.0308C74.6111 55.6373 75.0834 55.4799 75.5556 55.6373Z" fill="#231F20"/>
<path d="M75.2407 39.5817C75.2407 39.9752 75.2407 40.2901 75.162 40.4475C75.162 40.6836 75.0046 40.9984 74.6898 41.4706C74.4537 41.9428 74.0602 42.3363 73.6667 42.6512C73.2732 42.966 72.5648 43.3595 71.6991 43.6743C70.7546 43.9891 69.7315 44.2252 68.4722 44.3039C68.3148 44.3039 68.2361 44.3826 68.2361 44.4614C68.2361 44.6188 68.3148 44.8549 68.4722 45.1697C68.6296 45.4845 68.787 45.7206 68.9445 45.9567C69.4167 46.4289 70.125 46.6651 70.9908 46.6651C71.8565 46.6651 72.6435 46.4289 73.2732 45.9567C73.588 45.7206 73.9028 45.3271 74.0602 45.0123C74.1389 44.8549 74.2963 44.7762 74.375 44.7762C74.5324 44.7762 74.6111 44.8549 74.6898 45.091C74.7685 45.3271 74.8472 45.4058 74.8472 45.5632C74.8472 46.2715 74.6898 46.8225 74.375 47.2947C74.0602 47.7669 73.6667 48.1604 73.2732 48.3965C72.8796 48.6326 72.4074 48.7901 71.8565 48.9475C71.1482 49.1049 70.5185 49.1836 69.8889 49.1836C68.0787 49.1836 66.8195 48.6326 65.9537 47.5308C65.088 46.4289 64.6945 45.0123 64.6945 43.2808C64.6945 42.4151 64.8519 41.628 65.088 40.841C65.3241 40.0539 65.7176 39.3456 66.2685 38.716C67.2917 37.378 68.8658 36.6697 70.9908 36.6697C72.8796 36.6697 74.2176 37.2206 74.8472 38.3225C74.9259 38.4012 75.0046 38.5586 75.0046 38.6373C75.1621 39.0308 75.2407 39.3456 75.2407 39.5817ZM72.0139 39.8965V39.5817C72.0139 38.6373 71.5417 38.1651 70.6759 38.1651C69.9676 38.1651 69.4167 38.4012 69.0232 38.8734C68.3148 39.6604 68 40.6836 68 41.9428V42.5725C68 42.6512 68.0787 42.7299 68.2361 42.7299C68.9445 42.6512 69.4954 42.4938 70.0463 42.2576C70.5185 42.0215 70.912 41.7854 71.1481 41.4706C71.6991 40.9197 71.9352 40.3688 72.0139 39.8965Z" fill="#231F20"/>
<path d="M74.2175 23.5262C74.4536 23.9197 74.2962 24.4706 73.9027 24.7067C73.5092 24.9428 72.9582 24.7854 72.7221 24.3919C72.486 23.9984 72.6435 23.4475 73.037 23.2113C73.4305 22.9752 73.9814 23.1326 74.2175 23.5262Z" fill="#231F20"/>
<path d="M73.9027 59.0215C74.2962 59.2576 74.4536 59.7299 74.2175 60.2021C73.9814 60.5956 73.4305 60.753 73.037 60.5169C72.6435 60.2808 72.486 59.7298 72.7221 59.3363C72.9582 58.9428 73.5092 58.7854 73.9027 59.0215Z" fill="#231F20"/>
<path d="M72.25 53.591C72.9583 53.9058 73.3519 54.6142 72.8009 55.9521C72.7222 56.1095 72.6435 56.267 72.6435 56.4244C72.1713 57.5262 71.6991 57.9197 71.463 57.7623C71.3843 57.6836 71.2268 57.5262 71.1481 57.2901C71.3843 57.1327 71.6991 56.7392 72.0139 56.1882C72.4074 55.3225 72.25 54.8503 71.7778 54.6929C71.463 54.5355 71.1482 54.6142 70.5185 54.929L69.1019 55.716C68.3935 56.0308 68 56.1095 67.6852 55.9521C67.6065 55.8734 67.5278 55.8734 67.4491 55.7947C67.0556 55.4012 67.0555 54.5355 67.6065 53.3549C68.1574 52.1744 68.4722 51.8595 68.7083 51.9383C68.7871 52.017 68.9444 52.0957 68.9444 52.3318C68.787 52.4892 68.4722 52.8827 68.2361 53.4336C67.9213 54.142 67.8426 54.6929 68.2361 54.8503C68.4722 55.0077 68.787 54.8503 69.2593 54.6142L70.7546 53.7484C71.3055 53.3549 71.7778 53.3549 72.25 53.591Z" fill="#231F20"/>
<path d="M72.0927 20.2993C72.4075 20.6928 72.2501 21.2437 71.9353 21.4799C71.5418 21.716 70.9908 21.6373 70.7547 21.3224C70.5186 21.0076 70.5973 20.378 70.9121 20.1419C71.3056 19.8271 71.8566 19.9058 72.0927 20.2993Z" fill="#231F20"/>
<path d="M71.9351 62.2484C72.3286 62.5632 72.4073 63.0354 72.0925 63.4289C71.7777 63.8225 71.3055 63.9012 70.912 63.5864C70.5185 63.2715 70.4397 62.7993 70.7546 62.4058C70.9907 62.0123 71.5416 61.9336 71.9351 62.2484Z" fill="#231F20"/>
<path d="M70.4398 59.966C70.5185 60.0447 70.5185 60.1234 70.4398 60.2021L69.9676 60.8317L67.2917 60.6743C66.8982 60.6743 65.4028 60.4382 64.6945 60.2808C65.1667 60.5169 66.4259 61.4614 66.7408 61.6188L68.3148 62.7993C68.3935 62.878 68.3935 62.878 67.7639 63.7438L63.2778 60.3595C63.1991 60.2808 63.1991 60.2021 63.2778 60.1234L63.75 59.4938L66.4259 59.6512C66.8981 59.7299 68.3148 59.8873 69.0232 60.0447C68.5509 59.8086 67.2917 58.9428 66.9769 58.7067L65.4028 57.5262C65.3241 57.4475 65.3241 57.4475 65.9537 56.5817L66.4259 56.9752L70.4398 59.966Z" fill="#231F20"/>
<path d="M69.7315 17.3085C70.0463 17.6234 70.0463 18.1743 69.6528 18.4891C69.2592 18.8039 68.787 18.8039 68.4722 18.4104C68.1574 18.0956 68.1574 17.5446 68.5509 17.2298C68.9444 16.915 69.4167 16.9937 69.7315 17.3085Z" fill="#231F20"/>
<path d="M69.6528 65.2391C69.9676 65.5539 70.0463 66.1048 69.7315 66.4196C69.5741 66.577 69.338 66.6557 69.1019 66.6557C68.8658 66.6557 68.7084 66.577 68.551 66.4196C68.2362 66.1048 68.1574 65.5539 68.4723 65.2391C68.551 65.1604 68.551 65.1604 68.6297 65.0817C68.8658 64.9243 69.338 64.9243 69.6528 65.2391Z" fill="#231F20"/>
<path d="M66.9768 14.6327C67.2916 14.9475 67.3703 15.4984 67.0555 15.8132C66.7407 16.128 66.1898 16.2068 65.8749 15.8919C65.5601 15.5771 65.4814 15.0262 65.7962 14.7114C66.111 14.3179 66.662 14.2392 66.9768 14.6327Z" fill="#231F20"/>
<path d="M67.0556 67.915C67.3704 68.3086 67.3704 68.7808 66.9769 69.0956C66.662 69.4104 66.1111 69.4104 65.7963 69.0169C65.4815 68.6234 65.4815 68.1511 65.875 67.8363C66.1898 67.5215 66.7408 67.6002 67.0556 67.915Z" fill="#231F20"/>
<path d="M66.0324 65.3965C66.1111 65.4752 66.1111 65.5539 65.7963 65.7901C65.6389 65.8688 65.4815 66.0262 65.3241 66.1836L63.9074 65.4752L62.1759 66.9706L62.6481 68.3086C62.6481 68.3873 62.6482 68.466 62.3333 68.7021C62.2546 68.7808 62.0185 68.9382 61.7824 69.0956L59.9722 63.2716C59.8935 63.1928 60.0509 63.0354 60.2083 62.9567C60.3657 62.878 60.5231 62.7206 60.6018 62.6419L66.0324 65.3965ZM61.9398 66.341L63.3565 65.1604L62.2546 64.5308C61.7824 64.2947 61.1528 63.9012 60.9167 63.6651C61.0741 64.0586 61.3889 64.6095 61.5463 65.1604L61.9398 66.341Z" fill="#231F20"/>
<path d="M63.986 12.1929C64.3795 12.5077 64.4582 12.9799 64.1434 13.3734C63.8286 13.7669 63.3564 13.8456 62.9629 13.5308C62.5693 13.216 62.4907 12.7438 62.8055 12.3503C63.1203 11.9567 63.5925 11.878 63.986 12.1929Z" fill="#231F20"/>
<path d="M64.2223 70.3548C64.5371 70.7484 64.3797 71.2993 64.0649 71.5354C63.7501 71.7715 63.1991 71.6928 62.8843 71.378C62.5695 70.9845 62.6482 70.4335 63.0417 70.1974C63.3565 69.8826 63.9075 69.9613 64.2223 70.3548Z" fill="#231F20"/>
<path d="M63.514 39.5817C63.514 39.9752 63.514 40.2901 63.4353 40.4475C63.4353 40.5262 63.4353 40.5262 63.3566 40.6049C63.2779 40.841 63.1205 41.0771 62.963 41.3919C62.7269 41.8641 62.3334 42.2576 61.9399 42.5725C61.5464 42.8873 60.8381 43.2808 59.9723 43.5956C59.0279 43.9104 58.0047 44.1465 56.7455 44.2252C56.5881 44.2252 56.5093 44.3039 56.5093 44.3826C56.5093 44.5401 56.5881 44.7762 56.7455 45.091C56.9029 45.4058 57.0603 45.6419 57.2177 45.878C57.6899 46.3502 58.3982 46.5863 59.264 46.5863C60.1297 46.5863 60.9168 46.3502 61.5464 45.878C61.8612 45.6419 62.176 45.2484 62.4121 44.9336C62.4908 44.7762 62.5695 44.6975 62.7269 44.6975C62.8844 44.6975 62.9631 44.7762 63.0418 45.0123C63.1205 45.2484 63.1992 45.3271 63.1992 45.4845C63.1992 46.1928 63.0418 46.7438 62.7269 47.216C62.4121 47.6882 62.0186 48.0817 61.6251 48.3178C61.2316 48.5539 60.7593 48.7113 60.2084 48.8688C59.5001 49.0262 58.8705 49.1049 58.2408 49.1049C56.4306 49.1049 55.1714 48.5539 54.3056 47.4521C53.4399 46.3502 53.0464 44.9336 53.0464 43.2021C53.0464 41.4706 53.5973 39.9752 54.6205 38.6373C54.7779 38.4799 54.8566 38.3225 55.014 38.1651C56.0371 37.1419 57.4538 36.6697 59.264 36.6697C61.1529 36.6697 62.4908 37.2206 63.1205 38.3225C63.4353 38.7947 63.514 39.1882 63.514 39.5817ZM60.3658 39.8965V39.5817C60.3658 38.6373 59.8936 38.1651 59.0279 38.1651C58.3195 38.1651 57.7686 38.4012 57.3751 38.8734C56.6668 39.6604 56.3519 40.6836 56.3519 41.9428V42.5725C56.3519 42.6512 56.4306 42.7299 56.5881 42.7299C57.2177 42.6512 57.8473 42.4938 58.3982 42.2576C58.8705 42.0215 59.264 41.7854 59.5001 41.4706C60.051 40.9197 60.2871 40.3688 60.3658 39.8965Z" fill="#231F20"/>
<path d="M60.7593 10.0678C61.1528 10.304 61.3102 10.8549 61.0741 11.2484C60.838 11.6419 60.3657 11.7993 59.8935 11.5632C59.5 11.3271 59.3426 10.7762 59.5787 10.3827C59.8148 9.98914 60.3657 9.83174 60.7593 10.0678Z" fill="#231F20"/>
<path d="M61.0741 72.4799C61.3102 72.8734 61.1528 73.4243 60.7593 73.6604C60.3657 73.8966 59.8148 73.7391 59.5787 73.3456C59.3426 72.9521 59.5 72.4012 59.8935 72.1651C60.3657 71.929 60.838 72.0864 61.0741 72.4799Z" fill="#231F20"/>
<path d="M54.1481 26.5956C54.7778 26.5956 55.3287 26.5169 55.8796 26.2807C57.4537 25.6511 58.7917 24.3919 59.6574 23.0539C60.3657 21.952 60.7593 20.5354 60.4444 19.1974C60.5231 19.827 60.5231 20.4567 60.3657 21.0863C59.9722 22.7391 58.8704 24.077 57.6111 25.1002C56.6667 25.8872 55.4074 26.5956 54.1481 26.5956ZM52.0231 25.4937C52.1018 25.4937 52.2592 25.4937 52.338 25.4937C52.6528 25.4937 53.0463 25.415 53.5185 25.1789C53.7546 25.1002 53.9907 24.9428 54.3055 24.8641C54.5417 24.7067 54.8565 24.628 55.0926 24.3919C55.4074 24.2345 55.6435 24.077 55.8796 23.8409C56.1157 23.6048 56.3518 23.3687 56.5092 23.0539C56.6667 22.7391 56.7454 22.4243 56.8241 22.1094C56.9028 21.7946 56.9815 21.4798 57.1389 21.2437C57.2963 20.9289 57.4537 20.6928 57.6111 20.5354C57.7685 20.2993 58.0046 20.1419 58.162 19.9058C58.4768 19.5122 58.7917 19.2761 59.0278 19.04C59.1065 18.9613 59.2639 18.8826 59.2639 18.8039C59.3426 18.8039 59.3426 18.7252 59.3426 18.7252C59.3426 18.7252 59.3426 18.7252 59.2639 18.8039C59.1852 18.8826 59.1065 18.8826 58.9491 18.9613C58.713 19.1187 58.3981 19.4335 58.0046 19.7483C57.8472 19.9057 57.6111 20.1419 57.4537 20.2993C57.2176 20.5354 57.0602 20.7715 56.9028 21.0863C56.7454 21.4011 56.6667 21.7159 56.588 22.0307C56.5093 22.3456 56.4305 22.6604 56.2731 22.9752C56.1157 23.29 55.9583 23.5261 55.6435 23.7622C55.4074 23.9983 55.0926 24.1557 54.8565 24.3132C54.5417 24.4706 54.3056 24.628 54.0694 24.7854C53.8333 24.9428 53.5972 25.0215 53.3611 25.1789C52.8889 25.3363 52.4954 25.4937 52.1805 25.4937C52.1805 25.4937 52.1018 25.4937 52.0231 25.4937ZM60.7593 19.6696C60.7593 20.2206 60.7592 20.7715 60.6018 21.4011C60.287 22.503 59.5787 23.6835 58.5555 24.628C57.5324 25.6511 56.4305 26.3594 55.3287 26.6743C55.0926 26.753 54.9352 26.753 54.6991 26.8317C53.6759 26.9891 52.6528 26.5956 51.8657 25.8872C51.1574 25.1789 50.7639 24.077 50.9213 23.0539C50.9213 22.8178 51 22.6604 51.0787 22.4243C51.3935 21.3224 52.1018 20.1419 53.125 19.1974C54.1481 18.1743 55.25 17.4659 56.3518 17.1511C56.9028 16.9937 57.5324 16.915 58.0833 16.9937C59.5 16.9937 60.6806 18.1743 60.7593 19.6696ZM59.4213 18.4104C58.7129 18.4104 58.0833 18.6465 57.4537 19.04C56.7454 19.4335 55.8796 19.827 55.4861 20.5354C55.1713 21.0863 55.0926 21.7946 54.7778 22.4243C54.463 23.0539 54.0694 23.6835 53.5185 24.1557C52.9676 24.628 52.4167 24.9428 51.787 25.2576C52.6528 25.2576 53.3611 24.9428 54.0694 24.5493C54.7778 24.1557 55.7222 23.7622 56.1157 22.9752C56.3518 22.5817 56.4305 22.1095 56.5092 21.6372C56.7454 20.9289 57.1389 20.2993 57.7685 19.827C58.3981 19.2761 58.7917 18.7252 59.4213 18.4104Z" fill="#231F20"/>
<path d="M60.3658 21.0863C60.5232 20.4567 60.5232 19.8271 60.4445 19.1974C60.7593 20.5354 60.3658 21.9521 59.6575 23.0539C58.7917 24.4706 57.4537 25.7299 55.8797 26.2808C55.3287 26.5169 54.6991 26.5956 54.1482 26.5956C55.4075 26.5956 56.6667 25.8873 57.6112 25.1002C58.8704 24.0771 59.9723 22.6604 60.3658 21.0863Z" fill="#E8E8E1"/>
<path d="M59.9722 69.6465C60.2083 70.1188 60.287 70.1975 60.0509 70.2762L57.2963 71.7715L54.6204 66.8919C54.6204 66.8919 54.5417 66.7345 54.7778 66.6558L57.5324 65.0817C57.7685 65.5539 57.8472 65.6326 57.6898 65.7113L55.8796 66.7345L56.7454 68.2299L58.4769 67.2854C58.713 67.7576 58.7917 67.8364 58.6343 67.9151L57.0602 68.7808L58.162 70.7484L59.9722 69.6465Z" fill="#231F20"/>
<path d="M57.5324 18.9613C58.162 18.6465 58.7129 18.3317 59.5 18.3317C58.8703 18.7252 58.4768 19.1975 57.8472 19.7484C57.2963 20.2993 56.8241 20.8502 56.5879 21.5586C56.4305 22.0308 56.3518 22.4243 56.1944 22.8965C55.8009 23.6836 54.9352 24.0771 54.1481 24.4706C53.4398 24.8641 52.7315 25.1789 51.8657 25.1789C52.4954 24.8641 52.9676 24.5493 53.5972 24.0771C54.1481 23.6049 54.5417 22.9752 54.8565 22.3456C55.1713 21.716 55.1713 21.0864 55.5648 20.4567C55.9583 19.7484 56.7453 19.3549 57.5324 18.9613Z" fill="#E8E8E1"/>
<path d="M59.4212 18.7252C59.2638 18.8039 59.1851 18.8826 59.1064 18.9613C58.8703 19.1187 58.5555 19.4335 58.2407 19.8271C58.0833 19.9845 57.8472 20.2206 57.6898 20.4567C57.5324 20.6928 57.375 20.9289 57.2175 21.165C57.0601 21.4798 56.9814 21.716 56.9027 22.0308C56.824 22.3456 56.7453 22.6604 56.5879 22.9752C56.4305 23.29 56.1944 23.6048 55.9583 23.7623C55.7222 23.9984 55.4074 24.1558 55.1712 24.3132C54.9351 24.4706 54.6203 24.628 54.3842 24.7854C54.1481 24.9428 53.8333 25.0215 53.5972 25.1002C53.1249 25.2576 52.7314 25.3363 52.4166 25.415C52.7314 25.415 53.1249 25.2576 53.5972 25.1002C53.8333 25.0215 54.0694 24.8641 54.3055 24.7067C54.5416 24.5493 54.8564 24.3919 55.0925 24.2345C55.3286 24.0771 55.6435 23.9197 55.8796 23.6835C56.1157 23.4474 56.3518 23.2113 56.5092 22.8965C56.6666 22.5817 56.7453 22.2669 56.824 21.9521C56.9027 21.6372 56.9814 21.3224 57.1388 21.0076C57.2962 20.6928 57.4537 20.4567 57.6898 20.2206C57.9259 19.9845 58.0833 19.8271 58.2407 19.6697C58.5555 19.2761 58.949 19.04 59.1851 18.8826C59.1851 18.8826 59.2638 18.8039 59.4212 18.7252Z" fill="#E8E8E1"/>
<path d="M58.3982 59.8086C58.3982 59.8086 58.5556 62.9567 51.6297 63.2716C51.6297 63.2716 48.2454 63.5077 47.301 61.2253C47.1436 60.8317 46.8288 60.5169 46.4352 60.4382C46.1204 60.3595 45.6482 60.2808 44.9399 60.2808C44.9399 60.2808 37.5417 60.3595 35.1019 60.8317C32.7408 61.304 29.2778 62.4058 26.5232 59.966C26.3658 59.8086 26.3658 59.6512 26.5232 59.4938C29.1991 57.054 32.7408 58.2345 35.1019 58.628C37.5417 59.1003 44.9399 59.179 44.9399 59.179C45.5695 59.179 46.1204 59.1003 46.4352 59.0216C46.8288 58.8641 47.1436 58.628 47.301 58.2345C48.3241 55.9521 51.6297 56.1882 51.6297 56.1882C58.5556 56.5817 58.3982 59.8086 58.3982 59.8086ZM56.1158 57.4475C55.3288 57.054 54.463 56.8178 53.5186 56.6604C52.4167 56.503 51.2362 56.3456 50.0556 56.5817C49.1899 56.7391 48.4028 57.1327 47.8519 57.841C47.6158 58.1558 47.4584 58.5493 47.1436 58.8641C46.7501 59.179 46.2778 59.3364 45.8056 59.3364C44.7038 59.4938 43.5232 59.3364 42.4214 59.3364C41.2408 59.2577 40.0602 59.2577 38.8797 59.179C37.7778 59.1003 36.5973 59.0215 35.4954 58.9428C34.3936 58.7854 33.3704 58.5493 32.2686 58.3919C31.2454 58.2345 30.2223 58.1558 29.1991 58.3919C28.3334 58.5493 27.5464 59.0215 26.9167 59.5725C27.7825 59.0215 28.5695 58.5493 29.5926 58.3919C30.7732 58.2345 31.9538 58.3919 33.1343 58.628C34.2362 58.8641 35.338 59.1003 36.4399 59.179C37.5417 59.2577 38.7223 59.3364 39.8241 59.4151C41.0047 59.4938 42.1065 59.4938 43.2871 59.5725C44.3102 59.5725 45.5695 59.8086 46.5927 59.4151C47.0649 59.2577 47.3797 58.9428 47.6158 58.5493C47.7732 58.3132 47.9306 57.9984 48.1667 57.7623C48.7964 56.9752 49.9769 56.7391 50.9214 56.6604C52.6528 56.503 54.463 56.8966 56.1158 57.4475Z" fill="#231F20"/>
<path d="M57.375 8.33632C57.7686 8.57243 58.0047 9.04466 57.8473 9.43818C57.6111 9.8317 57.1389 10.0678 56.7454 9.8317C56.3519 9.67429 56.1158 9.12336 56.3519 8.72984C56.4306 8.33632 56.9028 8.17891 57.375 8.33632Z" fill="#231F20"/>
<path d="M57.7685 74.2901C57.9259 74.6836 57.7685 75.2345 57.2963 75.3919C56.9028 75.5493 56.3518 75.3919 56.1944 74.9984C55.9583 74.6049 56.1944 74.054 56.5879 73.8966C57.0602 73.6605 57.6111 73.8179 57.7685 74.2901Z" fill="#231F20"/>
<path d="M54.6204 70.9058C55.0926 72.2438 54.1481 73.1095 52.8102 73.5817L51.2361 74.1327L49.4259 68.8595C49.4259 68.7808 49.4259 68.7021 49.7407 68.6234L51 68.2299C52.0231 67.9151 53.2037 67.679 53.5185 68.7021C53.8333 69.5679 53.2824 70.1188 52.7315 70.3549C53.3611 70.1188 54.3055 70.0401 54.6204 70.9058ZM52.6528 73.0308C53.2824 72.7947 53.6759 72.2438 53.3611 71.3781C53.125 70.591 52.574 70.6697 51.9444 70.9058L51.3935 71.0632L52.1018 73.1882L52.6528 73.0308ZM51.8657 70.3549C52.4166 70.1975 52.6528 69.7253 52.4954 69.1744C52.2592 68.5447 51.787 68.5447 51.3148 68.7021L50.6852 68.9382L51.2361 70.591L51.8657 70.3549Z" fill="#231F20"/>
<path d="M53.7547 6.91968C54.2269 7.07709 54.463 7.54931 54.3056 8.02153C54.1482 8.49375 53.676 8.72986 53.2037 8.57245C52.7315 8.41505 52.4954 7.94283 52.6528 7.47061C52.8889 7.07709 53.3611 6.84098 53.7547 6.91968Z" fill="#231F20"/>
<path d="M54.3056 75.7067C54.463 76.179 54.2269 76.6512 53.7547 76.8086C53.2824 76.966 52.8102 76.7299 52.6528 76.2577C52.4954 75.7855 52.7315 75.3132 53.2037 75.1558C53.676 74.9984 54.1482 75.2345 54.3056 75.7067Z" fill="#231F20"/>
<path d="M53.5185 56.6604C54.3842 56.8178 55.3287 56.9752 56.1157 57.4474C54.463 56.8178 52.6528 56.503 51 56.5817C50.0555 56.6604 48.875 56.9752 48.2454 57.6835C48.0092 57.9196 47.9305 58.2345 47.6944 58.4706C47.4583 58.8641 47.0648 59.1789 46.6713 59.3363C45.6481 59.7298 44.3889 59.5724 43.3657 59.4937C42.1852 59.4937 41.0833 59.415 39.9028 59.3363C38.8009 59.2576 37.6204 59.2576 36.5185 59.1002C35.4167 59.0215 34.3148 58.7067 33.213 58.5493C32.0324 58.3132 30.8518 58.1558 29.6713 58.3132C28.6481 58.4706 27.7824 58.8641 26.9954 59.4937C27.7037 58.9428 28.412 58.4706 29.2778 58.3132C30.3009 58.077 31.3241 58.1558 32.3472 58.3132C33.4491 58.4706 34.4722 58.7854 35.5741 58.8641C36.6759 59.0215 37.7778 59.1002 38.9583 59.1002C40.1389 59.1789 41.3194 59.1789 42.5 59.2576C43.6018 59.2576 44.7824 59.415 45.8843 59.2576C46.3565 59.1789 46.8287 59.1002 47.2222 58.7854C47.537 58.4706 47.6944 58.0771 47.9306 57.7622C48.4815 57.0539 49.2685 56.6604 50.1343 56.503C51.2361 56.4243 52.4167 56.503 53.5185 56.6604Z" fill="#E8E8E1"/>
<path d="M52.8889 37.1419C53.0463 37.1419 53.125 37.2206 53.125 37.4567C53.125 37.6928 53.0463 37.9289 52.8102 38.2438C52.5741 38.5586 52.338 38.716 52.0232 38.716C51.7083 38.716 51.3148 38.716 50.7639 38.716C50.6852 40.0539 50.6852 41.1558 50.6852 42.1002L50.8426 47.3734C50.8426 48.4752 50.6852 49.4197 50.2917 50.2854C49.9769 51.1512 49.5046 51.7808 49.0324 52.1743C48.0093 53.0401 47.0648 53.591 46.2778 53.7484L45.7269 53.8271C45.4121 53.8271 45.2546 53.7484 45.2546 53.591L45.4121 53.1975C46.9861 51.3873 47.6945 47.0586 47.6945 40.1326C47.6945 39.503 47.6945 39.0308 47.6945 38.716C47.2222 38.716 46.8287 38.716 46.3565 38.7947C46.1204 38.7947 46.0417 38.716 46.0417 38.4799L46.1204 37.4567C46.1204 37.2993 46.2778 37.2206 46.5926 37.2206H47.6945V35.4891L47.7732 32.9706C47.7732 32.8919 47.7732 32.7345 47.8519 32.5771C47.9306 32.4197 48.1667 32.1836 48.5602 31.8688C48.9537 31.5539 49.5833 31.3178 50.3704 31.003C51.1574 30.7669 51.8658 30.6095 52.4167 30.6095C52.9676 30.6095 53.2824 30.7669 53.2824 31.003C53.2824 31.0817 53.2037 31.2391 52.9676 31.2391C52.338 31.3965 51.8658 31.8688 51.4722 32.5771C51.0787 33.3641 50.9213 34.6234 50.9213 36.4336V37.1419C51.8658 37.2206 52.5741 37.2206 52.8889 37.1419Z" fill="#231F20"/>
<path d="M50.0556 5.97524C50.5279 6.05395 50.8427 6.52617 50.6853 6.99839C50.6066 7.47061 50.1343 7.78543 49.6621 7.62802C49.1899 7.54932 48.9538 7.0771 49.0325 6.60487C49.1899 6.13265 49.5834 5.89654 50.0556 5.97524Z" fill="#231F20"/>
<path d="M50.6852 76.7299C50.7639 77.2021 50.4491 77.6743 50.0556 77.753C49.5833 77.8317 49.1111 77.5956 49.0324 77.1234C48.9537 76.6512 49.2685 76.2576 49.662 76.1002C50.1343 76.0215 50.6065 76.2576 50.6852 76.7299Z" fill="#231F20"/>
<path d="M47.1434 15.7345C47.6157 17.8595 47.537 20.2993 46.6712 22.3456C46.2777 23.2113 45.7268 23.9984 45.0184 24.5493C46.4351 23.3688 46.986 21.4012 47.1434 19.591C47.3796 17.466 47.0647 15.0262 45.8842 13.216C45.3333 12.3502 44.7036 11.6419 43.8379 11.1697C45.5694 12.0354 46.6712 13.8456 47.1434 15.7345Z" fill="#E8E8E1"/>
<path d="M46.2778 5.34564C46.75 5.42435 47.0649 5.81786 47.0649 6.29008C46.9861 6.76231 46.5926 7.07712 46.1204 7.07712C45.6482 6.99842 45.3334 6.6049 45.3334 6.13268C45.4121 5.66046 45.8056 5.34564 46.2778 5.34564Z" fill="#231F20"/>
<path d="M46.9862 77.4383C47.0649 77.9105 46.6714 78.304 46.1992 78.3827C45.7269 78.4614 45.3334 78.0679 45.2547 77.5957C45.176 77.1235 45.5695 76.7299 46.0417 76.6512C46.5927 76.6512 46.9862 76.9661 46.9862 77.4383Z" fill="#231F20"/>
<path d="M42.1851 25.4151L42.2638 25.3363C42.3425 25.2576 42.4212 25.1789 42.5786 25.0215C42.8147 24.7067 43.2083 24.2345 43.4444 23.6049C43.6018 23.2901 43.6805 22.9752 43.8379 22.5817C43.9953 22.1882 44.074 21.7947 44.1527 21.4012C44.2314 21.0076 44.3888 20.5354 44.3888 20.1419C44.3888 19.6697 44.3888 19.1975 44.2314 18.8039C44.074 18.3317 43.8379 17.9382 43.6018 17.5447C43.3657 17.1512 43.1296 16.7576 43.0508 16.3641C42.8934 15.9706 42.8147 15.5771 42.8147 15.1836C42.8147 14.7901 42.8147 14.4752 42.8147 14.0817C42.8147 13.3734 42.8147 12.8225 42.8147 12.4289C42.8147 12.1928 42.8934 12.1141 42.8934 11.9567C42.8934 11.878 42.8934 11.878 42.8934 11.7993C42.8934 11.7993 42.8934 11.878 42.8934 11.9567C42.8934 12.0354 42.8147 12.1928 42.8147 12.4289C42.736 12.8225 42.736 13.3734 42.736 14.0817C42.736 14.3965 42.736 14.7901 42.736 15.1836C42.736 15.5771 42.8147 15.9706 42.9721 16.4428C43.1295 16.8363 43.287 17.2299 43.5231 17.6234C43.7592 18.0169 43.9953 18.4104 44.074 18.8039C44.2314 19.1975 44.3101 19.6697 44.2314 20.0632C44.2314 20.5354 44.1527 20.9289 43.9953 21.3225C43.9166 21.716 43.7592 22.1095 43.6805 22.503C43.6018 22.8965 43.4444 23.2113 43.3657 23.5262C43.1295 24.1558 42.8147 24.628 42.5786 24.9428C42.4999 25.1002 42.3425 25.1789 42.2638 25.2576C42.2638 25.3363 42.1851 25.4151 42.1851 25.4151ZM46.5138 13.2947C47.3008 14.6326 47.6944 16.4428 47.6944 18.3317C47.6944 20.2206 47.3008 22.0308 46.5138 23.3688C46.3564 23.6049 46.199 23.841 46.0416 24.0771C45.1758 25.1789 43.8379 25.8086 42.4212 25.8086C41.0046 25.8086 39.7453 25.1789 38.8008 24.0771C38.6434 23.841 38.486 23.6049 38.3286 23.3688C37.5416 22.0308 37.1481 20.2206 37.1481 18.3317C37.1481 16.4428 37.5416 14.6326 38.3286 13.2947C38.7221 12.5863 39.1944 12.0354 39.7453 11.4845C41.2407 10.1465 43.5231 10.1465 45.0184 11.4845C45.6481 12.0354 46.1203 12.665 46.5138 13.2947ZM46.6712 22.3456C47.537 20.2993 47.6157 17.8595 47.1434 15.7345C46.7499 13.8456 45.6481 12.0354 43.9166 11.1697C44.7823 11.6419 45.4907 12.4289 45.9629 13.216C47.1434 15.1049 47.3795 17.466 47.2221 19.591C47.0647 21.4012 46.5138 23.3688 45.0971 24.5493C45.7268 23.9984 46.2777 23.2113 46.6712 22.3456ZM43.3657 22.3456C43.6805 21.2438 44.1527 20.0632 43.7592 18.9613C43.6018 18.4104 43.2082 17.8595 42.8934 17.3086C42.4212 16.3641 42.2638 15.4197 42.3425 14.3965C42.4212 13.3734 42.2638 12.5076 42.5786 11.5632C41.8703 12.2715 41.5555 13.0586 41.3194 14.003C41.0045 15.0262 40.611 16.2067 40.8471 17.3086C41.0833 18.1743 41.6342 18.8826 41.949 19.7484C42.2638 20.6141 42.4999 21.5586 42.4212 22.5817C42.3425 23.6049 42.1064 24.3919 41.8703 25.2576C42.6573 24.3919 43.0508 23.4475 43.3657 22.3456Z" fill="#231F20"/>
<path d="M45.7269 31.0817C45.7269 31.1604 45.6482 31.3179 45.4121 31.3179C44.7824 31.4753 44.3102 31.9475 43.9167 32.6558C43.5232 33.4429 43.2871 34.7021 43.2871 36.5123V37.2206C44.3889 37.2206 45.0972 37.1419 45.4121 37.0632C45.5695 37.0632 45.6482 37.1419 45.6482 37.378C45.6482 37.6142 45.5695 37.8503 45.3334 38.1651C45.0972 38.4799 44.8611 38.6373 44.4676 38.6373C44.1528 38.6373 43.7593 38.6373 43.2084 38.6373C43.2084 39.9753 43.1296 41.0771 43.1296 42.0216L43.2871 47.2947C43.2871 48.3966 43.1296 49.341 42.7361 50.2067C42.4213 51.0725 41.9491 51.7021 41.4769 52.0956C40.4537 52.9614 39.5093 53.5123 38.7222 53.6697L38.1713 53.7484C37.8565 53.7484 37.6991 53.6697 37.6991 53.5123L37.8565 53.1188C39.4306 51.3086 40.1389 46.9799 40.1389 40.054C40.1389 39.4243 40.1389 38.9521 40.1389 38.6373C39.6667 38.6373 39.2732 38.6373 38.8009 38.716C38.5648 38.716 38.4074 38.6373 38.4074 38.4012L38.4861 37.378C38.4861 37.2993 38.4861 37.2993 38.5648 37.2993C38.6435 37.2206 38.8009 37.1419 38.9583 37.1419H40.0602V35.4104L40.1389 32.8919C40.1389 32.8132 40.1389 32.6558 40.2176 32.4984C40.2963 32.341 40.5324 32.1049 40.9259 31.7901C41.3195 31.4753 41.9491 31.2392 42.7361 30.9243C43.5232 30.6882 44.2315 30.5308 44.7824 30.5308C45.4121 30.6882 45.7269 30.8456 45.7269 31.0817Z" fill="#231F20"/>
<path d="M40.7686 70.8271C40.7686 70.8271 41.0047 72.3225 41.0047 73.1882L41.0834 75.0771C41.0834 75.2345 41.0047 75.2345 39.9815 75.2345L39.9028 69.6465C39.9028 69.4891 39.9815 69.4891 40.1389 69.4891H40.926L42.1852 71.929C42.3426 72.2438 42.5788 72.7947 42.5788 72.8734C42.5788 72.8734 42.8149 72.2438 42.9723 72.0076L44.1528 69.6465C44.2315 69.5678 44.2315 69.4891 44.3889 69.4891H45.2547V75.0771C45.2547 75.2345 45.2547 75.2345 44.1528 75.2345V73.2669C44.1528 72.4799 44.3889 71.1419 44.3889 70.8271C44.1528 71.4567 43.6806 72.4799 43.5232 72.6373L42.8149 73.8965C42.8149 73.9753 42.7362 73.9752 42.6575 73.9752H42.1852L41.4769 72.716C41.5556 72.4799 41.0834 71.4567 40.7686 70.8271Z" fill="#231F20"/>
<path d="M44.2315 18.7252C44.3889 19.1188 44.4676 19.591 44.3889 20.0632C44.3102 20.5354 44.2315 20.9289 44.1528 21.3225C44.0741 21.716 43.9167 22.1095 43.838 22.503C43.7593 22.8965 43.6019 23.2113 43.4444 23.5262C43.1296 24.1558 42.8148 24.628 42.5787 24.9428C42.4213 25.1002 42.3426 25.1789 42.2639 25.2576C42.3426 25.1789 42.4213 25.0215 42.5787 24.9428C42.8148 24.628 43.1296 24.1558 43.3657 23.5262C43.5231 23.2113 43.6018 22.8965 43.6805 22.503C43.838 22.1095 43.9167 21.716 43.9954 21.3225C44.0741 20.9289 44.1528 20.4567 44.2315 20.0632C44.2315 19.591 44.2315 19.1975 44.0741 18.8039C43.9167 18.4104 43.6805 18.0169 43.5231 17.6234C43.287 17.2299 43.0509 16.8363 42.9722 16.4428C42.8148 16.0493 42.7361 15.5771 42.7361 15.1836C42.7361 14.7901 42.7361 14.3965 42.7361 14.0817C42.7361 13.3734 42.7361 12.8225 42.8148 12.4289C42.8148 12.1928 42.8935 12.1141 42.8935 11.9567C42.8935 11.878 42.8935 11.878 42.8935 11.7993C42.8935 11.7993 42.8935 11.878 42.8935 11.9567C42.8935 12.0354 42.8148 12.1928 42.8148 12.4289C42.7361 12.8225 42.7361 13.3734 42.8148 14.0817C42.8148 14.3965 42.8148 14.7901 42.8148 15.1836C42.8148 15.5771 42.8935 15.9706 43.0509 16.3641C43.2083 16.7577 43.3657 17.1512 43.6018 17.5447C43.838 17.9382 44.0741 18.3317 44.2315 18.7252Z" fill="#E8E8E1"/>
<path d="M43.7592 18.9613C44.074 20.0632 43.6805 21.2438 43.3657 22.3456C43.0509 23.4475 42.6574 24.3919 41.8704 25.1789C42.1065 24.3132 42.3426 23.5262 42.4213 22.503C42.5 21.4799 42.2639 20.6141 41.949 19.6697C41.6342 18.8039 41.0833 18.0956 40.8472 17.2299C40.6111 16.128 40.9259 15.0262 41.3194 13.9243C41.6342 12.9799 41.8703 12.1928 42.5787 11.4845C42.3426 12.4289 42.4213 13.2947 42.3426 14.3178C42.2639 15.341 42.4213 16.2854 42.8935 17.2299C43.2083 17.8595 43.6018 18.4104 43.7592 18.9613Z" fill="#E8E8E1"/>
<path d="M42.4213 5.18823C42.8935 5.18823 43.287 5.58176 43.287 6.05398C43.287 6.5262 42.8935 6.91972 42.4213 6.91972C41.9491 6.91972 41.5555 6.5262 41.5555 6.05398C41.5555 5.58176 41.9491 5.18823 42.4213 5.18823Z" fill="#231F20"/>
<path d="M42.4213 76.8873C42.8935 76.8873 43.287 77.2808 43.287 77.753C43.287 78.2252 42.8935 78.6188 42.4213 78.6188C41.9491 78.6188 41.5555 78.2252 41.5555 77.753C41.5555 77.2808 41.9491 76.8873 42.4213 76.8873Z" fill="#231F20"/>
<path d="M39.5093 6.13263C39.588 6.60485 39.1945 6.99836 38.7222 7.07707C38.25 7.15577 37.8565 6.76225 37.7778 6.29003C37.6991 5.81781 38.0926 5.42429 38.5648 5.34559C39.037 5.26689 39.5093 5.6604 39.5093 6.13263Z" fill="#231F20"/>
<path d="M38.8009 76.6512C39.2731 76.7299 39.5879 77.1235 39.5879 77.5957C39.5879 78.0679 39.1157 78.3827 38.6435 78.3827C38.1713 78.3827 37.8564 77.9105 37.8564 77.4383C37.8564 76.9661 38.3287 76.6512 38.8009 76.6512Z" fill="#231F20"/>
<path d="M38.4862 69.3317L37.2269 74.6836C36.9121 74.7623 36.1251 74.6836 35.2593 74.5262C35.1806 74.5262 35.1019 74.4475 35.0232 74.4475C32.9769 73.9752 32.8982 73.1095 33.0556 72.2438L33.9214 68.3873C34.0001 68.3086 34.0788 68.3086 35.0232 68.5447L34.1575 72.4799C34.0001 73.1095 34.0788 73.5817 35.1806 73.8178C35.6528 73.8965 36.1251 73.9752 36.3612 73.8965L37.463 69.0956C37.463 69.0956 37.463 69.0956 38.4862 69.3317Z" fill="#231F20"/>
<path d="M37.6991 37.378C37.6991 37.4567 37.6204 37.5355 37.463 37.6142C36.9121 37.7716 36.3611 38.0077 35.8102 38.3225C35.2593 38.6373 35.0232 38.8734 35.0232 38.9521L35.2593 39.1095C35.9676 39.4243 36.4398 39.8966 36.8334 40.6049C37.2269 41.3132 37.3843 41.8641 37.463 42.4151L37.5417 43.2021C37.5417 44.9336 36.9908 46.3503 35.8102 47.5308C34.6297 48.6327 33.0556 49.1836 31.088 49.1836C30.0648 49.1836 29.1991 49.0262 28.4908 48.7114C27.7824 48.3966 27.2315 48.0817 26.838 47.6882C26.5232 47.2947 26.2084 46.9012 25.9723 46.429C25.7361 45.7993 25.5787 45.091 25.5787 44.3827C25.5787 44.304 25.5787 44.304 25.5787 44.2253C25.5787 43.5956 25.7361 42.966 25.9723 42.2577C26.2871 41.5493 26.6019 41.0771 26.9167 40.6836C27.3102 40.3688 27.7037 40.054 28.176 39.8966C28.8056 39.6604 29.1991 39.503 29.5926 39.503C29.6713 39.503 29.75 39.503 29.8287 39.503C30.0649 39.503 30.1436 39.5817 30.1436 39.6604L29.9861 39.8966C29.5139 40.3688 29.1991 40.9197 28.963 41.7067C28.7269 42.4151 28.6482 43.1234 28.6482 43.6743C28.6482 44.2253 28.7269 44.7762 28.8843 45.4058C29.0417 45.9567 29.2778 46.3503 29.4352 46.6651C29.6713 46.9799 29.9074 47.1373 30.1436 47.2947C30.5371 47.5308 31.0093 47.6095 31.4028 47.6095C31.875 47.6095 32.2686 47.4521 32.7408 47.1373C33.1343 46.8225 33.4491 46.429 33.6852 45.9567C34.0787 45.091 34.2361 44.1466 34.2361 43.2808C34.2361 41.7854 33.7639 40.6836 32.8982 39.8178C32.1898 39.1882 31.1667 38.7947 29.9074 38.6373C29.5926 38.5586 29.2778 38.5586 28.8843 38.5586C28.3334 38.5586 27.9399 38.5586 27.7037 38.6373C27.4676 38.716 27.3102 38.5586 27.3102 38.4799C27.3102 38.4012 27.3889 38.2438 27.4676 38.1651C28.8056 37.1419 31.088 36.591 34.3149 36.591C35.4167 36.591 36.2824 36.6697 36.9121 36.8271L37.2269 36.9058C37.5417 37.2206 37.6991 37.2993 37.6991 37.378Z" fill="#231F20"/>
<path d="M35.8101 6.60487C35.8888 7.0771 35.574 7.54932 35.1804 7.62802C34.7082 7.70673 34.236 7.39191 34.1573 6.99839C34.0786 6.52617 34.3934 6.05395 34.7869 5.97524C35.1804 5.89654 35.7313 6.13265 35.8101 6.60487Z" fill="#231F20"/>
<path d="M35.1807 76.1003C35.6529 76.179 35.9677 76.6512 35.8103 77.1234C35.7316 77.5956 35.2594 77.9104 34.7871 77.753C34.7084 77.753 34.7084 77.753 34.6297 77.6743C34.2362 77.5169 34.0001 77.1234 34.0788 76.7299C34.1575 76.3364 34.551 76.0215 34.9445 76.0215C35.0232 76.1002 35.102 76.1003 35.1807 76.1003Z" fill="#231F20"/>
<path d="M25.4212 18.7253C25.4212 18.7253 25.4999 18.7253 25.4999 18.804C25.5786 18.8827 25.6574 18.8827 25.7361 19.0401C25.9722 19.1975 26.287 19.5123 26.6018 19.9058C26.7592 20.0633 26.9953 20.2994 27.1527 20.5355C27.3101 20.7716 27.4675 21.0077 27.6249 21.2438C27.7823 21.5586 27.861 21.7947 27.9397 22.1095C28.0185 22.4244 28.0972 22.7392 28.2546 23.054C28.412 23.3688 28.6481 23.6836 28.8842 23.841C29.1203 23.9984 29.4351 24.2345 29.6712 24.392C29.9861 24.5494 30.2222 24.7068 30.4583 24.8642C30.6944 25.0216 30.9305 25.1003 31.1666 25.179C31.6388 25.3364 32.0323 25.4151 32.3472 25.4938C32.5046 25.4938 32.5833 25.4938 32.662 25.4938C32.5833 25.4938 32.4259 25.4938 32.3472 25.4938C32.0323 25.4938 31.6388 25.3364 31.1666 25.179C30.9305 25.1003 30.6944 24.9429 30.4583 24.7855C30.2222 24.6281 29.9073 24.4707 29.6712 24.3132C29.4351 24.1558 29.1203 23.9984 28.8842 23.7623C28.6481 23.5262 28.412 23.2901 28.3333 22.9753C28.1759 22.6605 28.0972 22.3457 28.0185 22.0308C27.9398 21.716 27.8611 21.4012 27.7036 21.0864C27.5462 20.7716 27.3888 20.5355 27.1527 20.2994C26.9166 20.0633 26.7592 19.9058 26.6018 19.7484C26.2083 19.3549 25.8935 19.1188 25.6573 18.9614C25.4999 18.8827 25.4212 18.804 25.3425 18.804C25.4999 18.804 25.4212 18.7253 25.4212 18.7253ZM24.5555 18.8827C24.162 20.2994 24.4768 21.7947 25.2638 22.9753C26.1296 24.3919 27.4675 25.6512 29.0416 26.2021C29.5925 26.4383 30.2222 26.5169 30.7731 26.5169C29.5138 26.5169 28.2546 25.8086 27.3101 25.0216C26.0509 23.9984 24.949 22.5818 24.5555 21.0077C24.3981 20.3781 24.3194 19.591 24.5555 18.8827ZM33.9999 23.054C34.1573 24.0771 33.7638 25.1003 33.0555 25.8873C32.3472 26.5957 31.2453 26.9892 30.2222 26.8318C29.9861 26.8318 29.8286 26.7531 29.5925 26.6744C28.4907 26.3595 27.3101 25.6512 26.3657 24.6281C25.3425 23.6049 24.6342 22.5031 24.3194 21.4012C24.162 20.8503 24.0833 20.2207 24.162 19.6697C24.2407 18.1744 25.4212 16.9938 26.9166 16.9151C27.4675 16.9151 28.0185 16.9938 28.6481 17.0725C29.7499 17.3873 30.9305 18.0957 31.8749 19.1188C32.8194 20.142 33.6064 21.2438 33.9212 22.3457C33.9212 22.5818 33.9999 22.8179 33.9999 23.054ZM30.6944 24.4706C31.4027 24.8642 32.1111 25.179 32.9768 25.179C32.3472 24.8642 31.8749 24.5494 31.2453 24.0771C30.6944 23.6049 30.3009 22.9753 29.986 22.3457C29.6712 21.716 29.6712 21.0864 29.2777 20.4568C28.8842 19.7484 28.0185 19.3549 27.3101 18.9614C26.6805 18.6466 26.0509 18.3318 25.3425 18.3318C25.9722 18.7253 26.3657 19.1975 26.9953 19.7484C27.5462 20.2994 28.0185 20.8503 28.2546 21.5586C28.412 22.0308 28.4907 22.4244 28.6481 22.8966C29.0416 23.6836 29.986 24.0771 30.6944 24.4706Z" fill="#231F20"/>
<path d="M32.9768 25.1789C32.111 25.1789 31.4027 24.8641 30.6944 24.4706C29.986 24.0771 29.0416 23.6836 28.6481 22.8965C28.412 22.503 28.3333 22.0308 28.2546 21.5586C28.0185 20.8502 27.5462 20.2206 26.9953 19.7484C26.4444 19.1975 26.0509 18.7252 25.3425 18.3317C26.0509 18.3317 26.6805 18.5678 27.3101 18.9613C28.0185 19.3549 28.8842 19.7484 29.2777 20.4567C29.5925 21.0076 29.6712 21.716 29.986 22.3456C30.3009 22.9752 30.6157 23.6049 31.2453 24.0771C31.8749 24.5493 32.3472 24.8641 32.9768 25.1789Z" fill="#E8E8E1"/>
<path d="M32.8981 25.4937C32.8194 25.4937 32.662 25.4937 32.5833 25.4937C32.2685 25.4937 31.8749 25.415 31.4027 25.1789C31.1666 25.1002 30.9305 24.9428 30.6944 24.8641C30.4583 24.7067 30.1435 24.628 29.9073 24.3919C29.6712 24.2345 29.3564 24.0771 29.1203 23.841C28.8842 23.6048 28.6481 23.3687 28.4907 23.0539C28.3333 22.7391 28.2546 22.4243 28.1759 22.1095C28.0972 21.7947 28.0185 21.4798 27.8611 21.2437C27.7036 20.9289 27.5462 20.6928 27.3888 20.5354C27.2314 20.2993 26.9953 20.1419 26.8379 19.9058C26.5231 19.5123 26.2083 19.2761 25.9722 19.04C25.8935 18.9613 25.7361 18.8826 25.7361 18.8039L25.6573 18.7252C25.6573 18.7252 25.7361 18.7252 25.7361 18.8039C25.8148 18.8826 25.8935 18.8826 26.0509 18.9613C26.287 19.1187 26.6018 19.4335 26.9953 19.7484C27.1527 19.9058 27.3888 20.1419 27.5462 20.2993C27.7823 20.5354 27.9398 20.7715 28.0972 21.0863C28.2546 21.4011 28.3333 21.716 28.412 22.0308C28.4907 22.3456 28.5694 22.6604 28.7268 22.9752C28.8842 23.29 29.0416 23.5261 29.2777 23.7623C29.5138 23.9984 29.8286 24.1558 30.0648 24.3132C30.3009 24.4706 30.6157 24.628 30.8518 24.7854C31.0879 24.9428 31.324 25.0215 31.5601 25.1789C32.0323 25.3363 32.4259 25.4937 32.7407 25.4937C32.662 25.4937 32.8194 25.4937 32.8981 25.4937Z" fill="#E8E8E1"/>
<path d="M32.5046 67.6789L32.4259 67.7576L30.3796 72.7947C30.3009 72.9521 30.3009 72.8734 29.3564 72.4799L31.4027 67.4428V67.3641C31.4815 67.2854 31.5601 67.2854 32.5046 67.6789Z" fill="#231F20"/>
<path d="M32.1897 7.54932C32.3472 8.02154 32.111 8.49377 31.6388 8.65118C31.1666 8.80858 30.6944 8.57247 30.537 8.10025C30.3796 7.62803 30.6157 7.1558 31.0879 6.99839C31.5601 6.84099 32.0323 7.07709 32.1897 7.54932Z" fill="#231F20"/>
<path d="M31.6388 75.1558C32.111 75.3132 32.3472 75.7855 32.1897 76.2577C32.0323 76.7299 31.5601 76.966 31.0879 76.8086C30.6157 76.6512 30.3796 76.179 30.537 75.7067C30.6944 75.2345 31.1666 74.9984 31.6388 75.1558Z" fill="#231F20"/>
<path d="M30.6944 26.5956C30.0648 26.5956 29.5139 26.5169 28.963 26.2808C27.4676 25.6512 26.0509 24.3919 25.1852 23.054C24.4768 21.8734 24.0833 20.378 24.4769 18.9614C24.3194 19.6697 24.3194 20.378 24.4769 21.0864C24.7917 22.7392 25.9722 24.0771 27.2315 25.1003C28.2546 25.8873 29.4352 26.5956 30.6944 26.5956Z" fill="#E8E8E1"/>
<path d="M25.4212 65.3965C25.4212 65.3965 24.7916 66.8132 24.3194 67.5215L23.2962 69.0956C23.2175 69.1743 23.1388 69.1743 22.3518 68.6234L25.3425 63.9011C25.4213 63.8224 25.4999 63.8224 25.5787 63.9011L26.2083 64.2946L25.9722 67.0493C25.9722 67.3641 25.8148 67.9937 25.8148 68.0724C25.8148 68.0724 26.287 67.6789 26.6018 67.5215L28.8055 66.1835C28.8842 66.1048 28.9629 66.1048 29.0416 66.1835L29.7499 66.6558L26.7592 71.378C26.6805 71.4567 26.6805 71.4567 25.7361 70.9058L26.8379 69.253C27.3101 68.6233 28.1759 67.5215 28.3333 67.3641C27.7824 67.7576 26.8379 68.3872 26.6805 68.4659L25.4212 69.1743C25.3425 69.1743 25.2638 69.1743 25.2638 69.1743L24.8703 68.9382L24.949 67.4428C25.1851 67.2067 25.3425 66.1048 25.4212 65.3965Z" fill="#231F20"/>
<path d="M28.6481 8.72984C28.8055 9.12336 28.6481 9.67429 28.1759 9.8317C27.7037 10.0678 27.2315 9.8317 27.074 9.43818C26.9166 8.96596 27.074 8.49373 27.5463 8.33632C27.9398 8.17891 28.412 8.33632 28.6481 8.72984Z" fill="#231F20"/>
<path d="M28.1758 73.8178C28.5693 73.9752 28.8054 74.5262 28.648 74.9197C28.4119 75.3132 27.9397 75.5493 27.5462 75.3132C27.1527 75.1558 26.9166 74.6049 27.074 74.2113C27.3101 73.8178 27.7823 73.6604 28.1758 73.8178Z" fill="#231F20"/>
<path d="M25.264 10.3827C25.5001 10.7762 25.3427 11.3271 24.9492 11.5632C24.5557 11.7993 24.0048 11.6419 23.7687 11.2484C23.5325 10.8549 23.6899 10.304 24.0835 10.0678C24.477 9.83174 25.0279 9.98914 25.264 10.3827Z" fill="#231F20"/>
<path d="M24.9492 72.1651C25.3427 72.4012 25.5001 72.9521 25.264 73.3456C25.0279 73.7391 24.477 73.8966 24.0835 73.6604C23.6899 73.4243 23.5325 72.8734 23.7687 72.4799C24.0048 72.0864 24.5557 71.929 24.9492 72.1651Z" fill="#231F20"/>
<path d="M22.273 60.8317L24.5555 63.0354C24.398 63.1928 24.3193 63.2715 24.2406 63.2715C24.0832 63.429 24.0832 63.3502 23.9258 63.2715L22.4304 61.7762L21.2499 63.0354L22.6666 64.4521C22.3517 64.8456 22.273 64.9243 22.1156 64.7669L20.8564 63.5076L19.361 65.0817L21.0138 66.6558C20.6203 67.0493 20.6203 67.0493 20.4628 66.9706L20.2267 66.7345L18.2592 64.8456L22.1156 60.8317C22.0369 60.753 22.1156 60.6743 22.273 60.8317Z" fill="#231F20"/>
<path d="M24.0834 43.9104C24.0834 43.9891 24.0834 44.1465 24.0834 44.2252C24.0047 44.9336 23.8473 45.5632 23.5325 46.1928C23.139 46.9011 22.6668 47.3734 22.1159 47.7669C21.5649 48.1604 21.014 48.3965 20.3057 48.6326C18.0233 49.4197 15.8983 49.4197 13.9307 48.5539C12.9075 48.0817 12.1992 47.6095 11.6483 46.9799C11.0973 46.3502 10.7038 45.6419 10.389 44.7761C9.91678 43.5169 9.68066 42.1789 9.68066 40.7623C9.68066 39.9752 9.75937 39.1882 9.83807 38.4012C9.91677 37.8502 9.99548 37.2993 10.1529 36.8271C10.4677 35.6465 10.9399 34.466 11.6483 33.3641C12.2779 32.2623 13.2223 31.3965 14.4029 30.6882C15.5834 30.0586 17.0001 29.665 18.5742 29.665C19.2825 29.665 19.9908 29.7437 20.6992 29.9798C21.4075 30.1373 22.0371 30.3734 22.5094 30.6882C22.9816 30.9243 23.3751 31.3965 23.7686 31.9474C24.0834 32.4984 24.3196 33.2067 24.3196 33.915C24.3196 34.7021 24.0834 35.4891 23.6112 36.1187C23.3751 36.4336 23.0603 36.6697 22.5881 36.9058C22.1159 37.1419 21.5649 37.2993 20.9353 37.2993C19.9909 37.2993 19.2825 36.9058 18.889 36.1974C18.7316 35.8826 18.6529 35.6465 18.6529 35.253C18.6529 34.9382 18.8103 34.7021 19.0464 34.7021C19.3612 34.6234 19.5973 34.466 19.8334 34.1511C20.0696 33.8363 20.227 33.4428 20.227 33.0493C20.227 32.7345 20.1483 32.4197 19.9121 32.1836C19.5186 31.7113 18.889 31.5539 18.1807 31.5539C17.3936 31.5539 16.764 31.8687 16.1344 32.4197C15.5047 32.9706 15.0325 33.7576 14.7177 34.6234C14.0881 36.3549 13.7733 38.0076 13.7733 39.503C13.7733 40.9984 14.0094 42.1789 14.4816 43.0447C15.1112 44.1465 15.8196 44.8549 16.764 45.2484C17.3149 45.4845 18.0233 45.5632 18.7316 45.5632C19.9908 45.5632 21.0927 45.091 22.1159 44.1465C22.5094 43.753 22.9029 43.3595 23.139 42.8086C23.2177 42.6511 23.3751 42.5724 23.5325 42.5724C23.8473 42.6511 24.0834 43.1234 24.0834 43.9104Z" fill="#231F20"/>
<path d="M22.037 12.3503C22.3518 12.7438 22.1944 13.216 21.8796 13.5308C21.4861 13.7669 20.9352 13.7669 20.6991 13.3734C20.4629 12.9799 20.5416 12.5077 20.8565 12.1929C21.25 11.878 21.8009 11.9567 22.037 12.3503Z" fill="#231F20"/>
<path d="M21.8797 70.1974C22.2732 70.5122 22.3519 70.9845 22.0371 71.378C21.801 71.7715 21.2501 71.8502 20.8565 71.5354C20.463 71.2206 20.3843 70.7484 20.6991 70.3548C20.9352 69.9613 21.4862 69.8826 21.8797 70.1974Z" fill="#231F20"/>
<path d="M19.7547 57.6836C20.6992 59.0215 20.7779 59.966 19.8334 60.5956C19.1251 61.1465 18.4168 60.9891 17.8658 60.5956C17.8658 61.1465 17.6297 62.091 16.6853 62.9567C16.6066 63.0354 16.5279 63.0354 16.213 62.6419C16.1343 62.4845 15.9769 62.3271 15.8195 62.091C16.8427 61.1465 17.0788 60.2808 17.0788 59.8873C17.0001 59.8086 17.0001 59.7299 16.9214 59.6512L16.6853 59.2576L14.8751 60.5169C14.7964 60.5956 14.7964 60.5956 14.1667 59.7299L18.7316 56.503C18.7316 56.503 18.8103 56.4243 18.9677 56.5817L19.7547 57.6836ZM19.1251 59.5725C19.5973 59.1789 19.7547 58.7854 19.3612 58.1558L18.9677 57.6049L17.1575 58.8641L17.4723 59.3363C17.9445 59.966 18.4168 60.0447 19.1251 59.5725Z" fill="#231F20"/>
<path d="M19.0463 14.6326C19.3611 14.9474 19.3611 15.4984 18.9676 15.8132C18.6528 16.128 18.1018 16.128 17.787 15.7345C17.4722 15.4197 17.4722 14.8687 17.8657 14.5539C18.2593 14.2391 18.7315 14.3178 19.0463 14.6326Z" fill="#231F20"/>
<path d="M19.0463 67.8364C19.3611 68.1512 19.4398 68.7022 19.125 69.017C18.8102 69.3318 18.2593 69.4105 17.9445 69.0957C17.8658 69.017 17.7871 68.9383 17.7084 68.7809C17.5509 68.4661 17.6297 68.1512 17.8658 67.8364C18.1019 67.6003 18.6528 67.5216 19.0463 67.8364Z" fill="#231F20"/>
<path d="M17.1575 53.1187C17.8659 54.6141 17.7085 55.5585 16.6853 56.0308C15.4261 56.5817 14.639 55.7947 14.0094 54.5354L13.7733 54.1419L11.8057 55.0863C11.727 55.165 11.727 55.165 11.2548 54.1419L16.3705 51.7808C16.4492 51.7808 16.5279 51.7808 16.6066 51.9382L17.1575 53.1187ZM16.2918 54.9289C16.8427 54.6928 17.0788 54.2993 16.764 53.5909L16.5279 52.9613L14.4816 53.9058L14.7177 54.4567C14.9538 55.0863 15.4261 55.3224 16.2918 54.9289Z" fill="#231F20"/>
<path d="M16.3703 17.2298C16.6852 17.5446 16.7639 18.0956 16.4491 18.4104C16.1342 18.7252 15.5833 18.8039 15.2685 18.4891C14.9537 18.1743 14.875 17.6234 15.1898 17.3085C15.5046 16.9937 16.0555 16.915 16.3703 17.2298Z" fill="#231F20"/>
<path d="M16.4491 65.3178C16.7639 65.7113 16.7639 66.1836 16.3704 66.4984C16.0556 66.8132 15.5047 66.8132 15.1899 66.4197C14.875 66.0262 14.8751 65.5539 15.2686 65.2391C15.5834 64.9243 16.1343 64.9243 16.4491 65.3178Z" fill="#231F20"/>
<path d="M13.9305 20.1419C14.324 20.378 14.4027 20.9289 14.0879 21.3224C13.8518 21.716 13.3008 21.7947 12.9073 21.4799C12.5138 21.165 12.4351 20.6928 12.7499 20.2993C12.986 19.9058 13.537 19.8271 13.9305 20.1419Z" fill="#231F20"/>
<path d="M14.0879 62.4058C14.4027 62.7993 14.2453 63.2715 13.9305 63.5864C13.537 63.8225 12.986 63.8225 12.7499 63.4289C12.4351 63.0354 12.5138 62.5632 12.9073 62.2484C13.3008 61.9336 13.8518 62.0123 14.0879 62.4058Z" fill="#231F20"/>
<path d="M11.8055 23.2113C12.199 23.4475 12.3565 23.9984 12.1204 24.3919C11.8842 24.7854 11.3333 24.9428 10.9398 24.7067C10.5463 24.4706 10.3889 23.9197 10.625 23.5262C10.8611 23.1326 11.412 22.9752 11.8055 23.2113Z" fill="#231F20"/>
<path d="M12.1204 59.3363C12.3565 59.7298 12.199 60.2808 11.8055 60.5169C11.412 60.753 10.8611 60.5956 10.625 60.2021C10.3889 59.8086 10.5463 59.2576 10.9398 59.0215C11.412 58.7854 11.8842 58.9428 12.1204 59.3363Z" fill="#231F20"/>
<path d="M9.99532 26.5168C10.3888 26.6742 10.625 27.2251 10.3888 27.6187C10.2314 28.0909 9.6805 28.2483 9.28698 28.0909C8.81476 27.9335 8.65736 27.3826 8.81477 26.989C9.12958 26.5168 9.6018 26.2807 9.99532 26.5168Z" fill="#231F20"/>
<path d="M10.4676 56.1095C10.625 56.5817 10.4676 57.0539 10.0741 57.2113C9.68057 57.3687 9.12964 57.2113 8.97224 56.8178C8.81483 56.4243 8.97223 55.8734 9.44445 55.716C9.75927 55.4798 10.2315 55.6373 10.4676 56.1095Z" fill="#231F20"/>
<path d="M8.57864 29.9798C9.05087 30.1372 9.28698 30.6095 9.12957 31.0817C8.97216 31.5539 8.49994 31.79 8.02772 31.6326C7.5555 31.4752 7.31938 31.003 7.47679 30.5308C7.7129 30.0586 8.18513 29.8224 8.57864 29.9798Z" fill="#231F20"/>
<path d="M9.12957 52.6465C9.28698 53.1187 9.05087 53.591 8.57864 53.7484C8.10642 53.9058 7.63419 53.6697 7.47679 53.1974C7.31938 52.7252 7.5555 52.253 8.02772 52.0956C8.49994 52.0169 8.97216 52.253 9.12957 52.6465Z" fill="#231F20"/>
<path d="M7.55552 33.6002C8.02774 33.6789 8.26386 34.1512 8.18515 34.6234C8.10645 35.0956 7.63422 35.4104 7.162 35.253C6.68978 35.1743 6.45367 34.7021 6.53237 34.2299C6.61107 33.7577 7.0833 33.5215 7.55552 33.6002Z" fill="#231F20"/>
<path d="M8.18519 49.1048C8.26389 49.5771 7.94907 50.0493 7.55556 50.128C7.08333 50.2067 6.61111 49.8919 6.5324 49.4984C6.4537 49.0261 6.76852 48.5539 7.16204 48.4752C7.63426 48.3965 8.10648 48.7113 8.18519 49.1048Z" fill="#231F20"/>
<path d="M6.84716 37.2993C7.31939 37.378 7.6342 37.7715 7.6342 38.2438C7.5555 38.716 7.16197 39.0308 6.68975 39.0308C6.21752 38.9521 5.90271 38.6373 5.90271 38.1651V38.0864C5.98141 37.5354 6.37494 37.2206 6.84716 37.2993Z" fill="#231F20"/>
<path d="M7.63427 45.4845C7.71297 45.9567 7.31946 46.3502 6.84723 46.4289C6.37501 46.5076 5.98148 46.1141 5.90278 45.6419C5.82407 45.1697 6.21759 44.7762 6.68982 44.6974C7.16204 44.6974 7.55557 45.091 7.63427 45.4845Z" fill="#231F20"/>
<path d="M6.61123 40.9984C7.08345 40.9984 7.47696 41.3919 7.47696 41.8641C7.47696 42.3363 7.08345 42.7298 6.61123 42.7298C6.13901 42.7298 5.74548 42.3363 5.74548 41.8641C5.74548 41.3919 6.13901 40.9984 6.61123 40.9984Z" fill="#231F20"/>
</svg>
