<svg width="185" height="183" viewBox="0 0 185 183" fill="none" xmlns="http://www.w3.org/2000/svg">
<path d="M180.204 75.528C181.06 80.6669 185 85.6345 185 91.116C185 96.4262 181.232 101.565 180.204 106.533C179.347 111.843 181.232 117.838 179.347 122.806C177.463 127.773 172.153 131.199 169.583 135.653C166.843 140.278 166.671 146.616 163.245 150.556C159.819 154.667 153.653 156.037 149.713 159.292C145.602 162.718 143.204 168.542 138.75 171.111C134.125 173.681 127.958 172.996 122.991 174.709C118.023 176.422 113.741 181.218 108.602 182.074C103.463 182.931 97.9815 180.019 92.5 180.019C87.0185 180.019 81.537 182.931 76.3982 182.074C71.088 181.218 66.8056 176.422 62.0093 174.709C57.0417 172.824 50.7037 173.681 46.25 171.111C41.625 168.371 39.2269 162.547 35.287 159.292C31.1759 155.866 25.0093 154.496 21.7547 150.556C18.3287 146.445 18.1574 140.278 15.4167 135.653C12.8472 131.199 7.53704 127.773 5.65278 122.806C3.93982 117.838 5.82408 111.843 4.7963 106.533C3.93982 101.394 0 96.4262 0 91.116C0 85.8058 3.76852 80.6669 4.7963 75.528C5.65278 70.2179 3.76852 64.2225 5.65278 59.4262C7.53704 54.4586 12.8472 51.0327 15.4167 46.579C18.1574 41.954 18.3287 35.7873 21.7547 31.6762C25.1806 27.5651 31.3472 26.1947 35.287 22.9401C39.3982 19.5142 41.7963 13.6901 46.25 11.1206C50.875 8.5512 57.0417 9.23638 62.0093 7.52341C66.9769 5.81045 71.2593 1.01415 76.3982 0.157668C81.537 -0.698813 87.0185 2.21324 92.5 2.21324C97.8102 2.21324 103.463 -0.698813 108.602 0.157668C113.912 1.01415 118.194 5.63916 122.991 7.52341C127.958 9.40767 134.125 8.5512 138.75 11.1206C143.375 13.8614 145.773 19.5142 149.713 22.9401C153.824 26.366 159.991 27.7364 163.245 31.6762C166.671 35.7873 166.843 41.954 169.583 46.579C172.153 51.204 177.463 54.4586 179.347 59.4262C181.232 64.3938 179.347 70.3892 180.204 75.528ZM175.065 91.116C175.065 88.204 174.894 85.4632 174.551 82.7225C170.269 40.9262 135.153 8.3799 92.1574 8.3799C49.3333 8.3799 14.0463 40.9262 9.76391 82.7225C9.42132 85.4632 9.25002 88.3753 9.25002 91.116C9.25002 114.755 19.1852 135.996 34.9445 151.07C45.7361 161.347 59.4398 168.713 74.5139 172.139C80.1667 173.338 85.9907 174.023 92.1574 174.023C115.796 174.023 137.037 164.088 152.111 148.329C158.62 141.477 163.931 133.597 167.87 124.861C172.495 114.412 175.065 103.107 175.065 91.116Z" fill="#E8E8E1"/>
<path d="M171.81 82.7225V82.8938C171.81 83.9216 171.125 84.6068 170.097 84.7781C169.069 84.9494 168.213 84.0929 168.041 83.0651C167.87 82.0373 168.727 81.1809 169.754 81.0096C170.782 81.0096 171.639 81.6948 171.81 82.7225Z" fill="#E8E8E1"/>
<path d="M170.097 97.454C171.125 97.6253 171.81 98.4818 171.81 99.5096C171.639 100.537 170.782 101.223 169.754 101.223C168.727 101.223 168.042 100.195 168.042 99.167C168.213 98.1392 169.069 97.2827 170.097 97.454Z" fill="#E8E8E1"/>
<path d="M170.44 89.2317C171.468 89.2317 172.324 90.0882 172.324 91.1159C172.324 92.1437 171.468 93.0002 170.44 93.0002C169.412 93.0002 168.556 92.1437 168.556 91.1159C168.556 90.0882 169.412 89.2317 170.44 89.2317Z" fill="#E8E8E1"/>
<path d="M170.44 74.5002C170.611 75.528 169.926 76.5558 169.069 76.7271C168.042 76.8984 167.185 76.3845 166.843 75.3567C166.671 74.329 167.357 73.4725 168.213 73.1299C169.241 72.9586 170.269 73.4725 170.44 74.5002Z" fill="#E8E8E1"/>
<path d="M169.069 105.505C170.097 105.676 170.782 106.704 170.44 107.732C170.268 108.76 169.24 109.445 168.213 109.102C167.185 108.931 166.5 107.903 166.842 106.875C167.014 106.019 168.041 105.334 169.069 105.505Z" fill="#E8E8E1"/>
<path d="M168.384 66.4494C168.727 67.4772 168.213 68.5049 167.185 68.8475C166.157 69.1901 165.13 68.6762 164.787 67.6485C164.445 66.6207 164.958 65.5929 165.986 65.2503C167.014 64.9077 168.042 65.4216 168.384 66.4494Z" fill="#E8E8E1"/>
<path d="M167.185 113.556C168.213 113.898 168.727 114.926 168.384 115.954C168.042 116.982 167.014 117.496 165.986 117.153C164.958 116.81 164.445 115.783 164.787 114.755C165.13 113.727 166.157 113.213 167.185 113.556Z" fill="#E8E8E1"/>
<path d="M165.301 58.5698C165.643 59.5976 165.301 60.6254 164.273 60.968C163.416 61.3106 162.217 60.968 161.875 59.9402C161.532 59.0837 161.875 57.8846 162.731 57.542C163.759 57.1995 164.958 57.7134 165.301 58.5698Z" fill="#E8E8E1"/>
<path d="M164.444 121.093C165.472 121.436 165.815 122.635 165.472 123.491C165.13 124.348 163.931 124.861 163.074 124.348C162.218 124.005 161.704 122.806 162.218 121.949C162.389 121.093 163.417 120.75 164.444 121.093Z" fill="#E8E8E1"/>
<path d="M163.759 86.1485C163.759 87.005 163.759 87.6901 163.588 88.0327C163.588 88.5466 163.245 89.2318 162.56 90.2596C162.046 91.2873 161.19 92.1438 160.333 92.829C159.477 93.5142 157.935 94.3707 156.051 95.0559C153.995 95.7411 151.769 96.2549 149.028 96.4262C148.685 96.4262 148.514 96.5975 148.514 96.7688C148.514 97.1114 148.685 97.6253 149.028 98.3105C149.37 98.9957 149.713 99.5096 150.056 100.023C151.083 101.051 152.625 101.565 154.509 101.565C156.394 101.565 158.107 101.051 159.477 100.023C160.162 99.5096 160.847 98.6531 161.19 97.9679C161.361 97.6253 161.704 97.454 161.875 97.454C162.218 97.454 162.389 97.6253 162.56 98.1392C162.731 98.6531 162.903 98.8244 162.903 99.167C162.903 100.709 162.56 101.908 161.875 102.935C161.19 103.963 160.333 104.82 159.477 105.334C158.62 105.848 157.593 106.19 156.394 106.533C154.852 106.875 153.482 107.047 152.111 107.047C148.171 107.047 145.431 105.848 143.546 103.449C141.662 101.051 140.806 97.9679 140.806 94.1994C140.806 92.3151 141.148 90.6022 141.662 88.8892C142.176 87.1762 143.032 85.6346 144.232 84.2642C146.458 81.3522 149.884 79.8105 154.509 79.8105C158.62 79.8105 161.532 81.0096 162.903 83.4077C163.074 83.579 163.245 83.9216 163.245 84.0929C163.588 84.9494 163.759 85.6346 163.759 86.1485ZM156.736 86.8336V86.1485C156.736 84.0929 155.708 83.0651 153.824 83.0651C152.282 83.0651 151.083 83.579 150.227 84.6068C148.685 86.3197 148 88.5466 148 91.2874V92.6577C148 92.829 148.171 93.0003 148.514 93.0003C150.056 92.829 151.255 92.4864 152.454 91.9725C153.482 91.4586 154.338 90.9448 154.852 90.2596C156.051 89.0605 156.565 87.8614 156.736 86.8336Z" fill="#E8E8E1"/>
<path d="M161.532 51.204C162.046 52.0605 161.703 53.2595 160.847 53.7734C159.991 54.2873 158.791 53.9447 158.278 53.0882C157.764 52.2318 158.106 51.0327 158.963 50.5188C159.819 50.0049 161.018 50.3475 161.532 51.204Z" fill="#E8E8E1"/>
<path d="M160.847 128.459C161.703 128.972 162.046 130 161.532 131.028C161.018 131.884 159.819 132.227 158.963 131.713C158.106 131.199 157.764 130 158.278 129.144C158.791 128.287 159.991 127.945 160.847 128.459Z" fill="#E8E8E1"/>
<path d="M157.25 116.639C158.792 117.324 159.648 118.866 158.449 121.778C158.278 122.121 158.107 122.463 158.107 122.806C157.079 125.204 156.051 126.061 155.537 125.718C155.366 125.547 155.023 125.204 154.852 124.69C155.366 124.348 156.051 123.491 156.736 122.292C157.593 120.408 157.25 119.38 156.222 119.037C155.537 118.695 154.852 118.866 153.482 119.551L150.398 121.264C148.857 121.949 148 122.121 147.315 121.778C147.144 121.607 146.972 121.607 146.801 121.436C145.944 120.579 145.944 118.695 147.144 116.125C148.343 113.556 149.028 112.871 149.542 113.042C149.713 113.213 150.056 113.385 150.056 113.899C149.713 114.241 149.028 115.098 148.514 116.297C147.829 117.838 147.657 119.037 148.514 119.38C149.028 119.723 149.713 119.38 150.741 118.866L153.995 116.982C155.194 116.125 156.222 116.125 157.25 116.639Z" fill="#E8E8E1"/>
<path d="M156.908 44.1809C157.593 45.0373 157.25 46.2364 156.565 46.7503C155.709 47.2642 154.509 47.0929 153.996 46.4077C153.482 45.7225 153.653 44.3521 154.338 43.8382C155.195 43.1531 156.394 43.3244 156.908 44.1809Z" fill="#E8E8E1"/>
<path d="M156.565 135.482C157.421 136.167 157.592 137.195 156.907 138.051C156.222 138.908 155.194 139.079 154.338 138.394C153.481 137.709 153.31 136.681 153.995 135.824C154.509 134.968 155.708 134.797 156.565 135.482Z" fill="#E8E8E1"/>
<path d="M153.31 130.514C153.481 130.685 153.481 130.857 153.31 131.028L152.282 132.398L146.458 132.056C145.602 132.056 142.347 131.542 140.806 131.199C141.833 131.713 144.574 133.769 145.259 134.111L148.685 136.681C148.857 136.852 148.857 136.852 147.486 138.736L137.722 131.371C137.551 131.199 137.551 131.028 137.722 130.857L138.75 129.486L144.574 129.829C145.602 130 148.685 130.343 150.227 130.685C149.199 130.172 146.458 128.287 145.773 127.773L142.347 125.204C142.176 125.033 142.176 125.033 143.546 123.148L144.574 124.005L153.31 130.514Z" fill="#E8E8E1"/>
<path d="M151.769 37.6715C152.454 38.3567 152.454 39.5558 151.597 40.241C150.741 40.9261 149.713 40.9261 149.028 40.0697C148.343 39.3845 148.343 38.1854 149.199 37.5002C150.056 36.815 151.083 36.9863 151.769 37.6715Z" fill="#E8E8E1"/>
<path d="M151.597 141.991C152.282 142.676 152.454 143.875 151.769 144.56C151.426 144.903 150.912 145.074 150.398 145.074C149.884 145.074 149.542 144.903 149.199 144.56C148.514 143.875 148.343 142.676 149.028 141.991C149.199 141.82 149.199 141.82 149.37 141.648C149.884 141.306 150.912 141.306 151.597 141.991Z" fill="#E8E8E1"/>
<path d="M145.773 31.8476C146.458 32.5327 146.63 33.7318 145.944 34.417C145.259 35.1022 144.06 35.2735 143.375 34.5883C142.69 33.9031 142.518 32.7041 143.204 32.0189C143.889 31.1624 145.088 30.9911 145.773 31.8476Z" fill="#E8E8E1"/>
<path d="M145.944 147.815C146.63 148.671 146.63 149.699 145.773 150.384C145.088 151.07 143.889 151.07 143.204 150.213C142.519 149.357 142.519 148.329 143.375 147.644C144.06 146.959 145.259 147.13 145.944 147.815Z" fill="#E8E8E1"/>
<path d="M143.718 142.334C143.889 142.505 143.889 142.676 143.204 143.19C142.861 143.361 142.519 143.704 142.176 144.047L139.093 142.505L135.324 145.76L136.352 148.672C136.352 148.843 136.352 149.014 135.667 149.528C135.495 149.699 134.981 150.042 134.468 150.385L130.528 137.709C130.357 137.537 130.699 137.195 131.042 137.023C131.384 136.852 131.727 136.51 131.898 136.338L143.718 142.334ZM134.81 144.389L137.894 141.82L135.495 140.449C134.468 139.935 133.097 139.079 132.583 138.565C132.926 139.422 133.611 140.621 133.954 141.82L134.81 144.389Z" fill="#E8E8E1"/>
<path d="M139.264 26.5374C140.12 27.2225 140.291 28.2503 139.606 29.1068C138.921 29.9633 137.893 30.1346 137.037 29.4494C136.18 28.7642 136.009 27.7364 136.694 26.8799C137.379 26.0235 138.407 25.8522 139.264 26.5374Z" fill="#E8E8E1"/>
<path d="M139.778 153.125C140.463 153.982 140.121 155.181 139.435 155.695C138.75 156.209 137.551 156.037 136.866 155.352C136.181 154.496 136.352 153.297 137.209 152.783C137.894 152.097 139.093 152.269 139.778 153.125Z" fill="#E8E8E1"/>
<path d="M138.236 86.1485C138.236 87.005 138.236 87.6901 138.065 88.0327C138.065 88.204 138.065 88.204 137.894 88.3753C137.722 88.8892 137.38 89.4031 137.037 90.0883C136.523 91.116 135.667 91.9725 134.81 92.6577C133.954 93.3429 132.412 94.1994 130.528 94.8846C128.472 95.5697 126.246 96.0836 123.505 96.2549C123.162 96.2549 122.991 96.4262 122.991 96.5975C122.991 96.9401 123.162 97.454 123.505 98.1392C123.847 98.8244 124.19 99.3383 124.533 99.8522C125.56 100.88 127.102 101.394 128.986 101.394C130.871 101.394 132.584 100.88 133.954 99.8522C134.639 99.3383 135.324 98.4818 135.838 97.7966C136.009 97.454 136.181 97.2827 136.523 97.2827C136.866 97.2827 137.037 97.454 137.209 97.9679C137.38 98.4818 137.551 98.6531 137.551 98.9957C137.551 100.537 137.209 101.736 136.523 102.764C135.838 103.792 134.982 104.648 134.125 105.162C133.269 105.676 132.241 106.019 131.042 106.361C129.5 106.704 128.13 106.875 126.759 106.875C122.82 106.875 120.079 105.676 118.195 103.278C116.31 100.88 115.454 97.7966 115.454 94.0281C115.454 90.2596 116.653 87.0049 118.88 84.0929C119.222 83.7503 119.394 83.4077 119.736 83.0651C121.963 80.8383 125.047 79.8105 128.986 79.8105C133.097 79.8105 136.009 81.0096 137.38 83.4077C138.065 84.4355 138.236 85.292 138.236 86.1485ZM131.384 86.8336V86.1485C131.384 84.0929 130.357 83.0651 128.472 83.0651C126.931 83.0651 125.732 83.579 124.875 84.6068C123.334 86.3197 122.648 88.5466 122.648 91.2874V92.6577C122.648 92.829 122.82 93.0003 123.162 93.0003C124.533 92.829 125.903 92.4864 127.102 91.9725C128.13 91.4586 128.986 90.9448 129.5 90.2596C130.699 89.0605 131.213 87.8614 131.384 86.8336Z" fill="#E8E8E1"/>
<path d="M132.241 21.9124C133.097 22.4263 133.44 23.6253 132.926 24.4818C132.412 25.3383 131.384 25.6809 130.356 25.167C129.5 24.6531 129.157 23.454 129.671 22.5975C130.185 21.7411 131.384 21.3985 132.241 21.9124Z" fill="#E8E8E1"/>
<path d="M132.926 157.75C133.44 158.607 133.097 159.806 132.241 160.32C131.384 160.834 130.185 160.491 129.671 159.635C129.157 158.778 129.5 157.579 130.356 157.065C131.384 156.551 132.412 156.894 132.926 157.75Z" fill="#E8E8E1"/>
<path d="M117.852 57.8845C119.222 57.8845 120.421 57.7132 121.62 57.1993C125.046 55.829 127.958 53.0882 129.843 50.1762C131.384 47.778 132.241 44.6947 131.556 41.7827C131.727 43.153 131.727 44.5234 131.384 45.8938C130.528 49.491 128.13 52.403 125.389 54.6299C123.333 56.3428 120.593 57.8845 117.852 57.8845ZM113.227 55.4864C113.398 55.4864 113.741 55.4864 113.912 55.4864C114.597 55.4864 115.454 55.3151 116.481 54.8012C116.995 54.6299 117.509 54.2873 118.194 54.116C118.708 53.7734 119.394 53.6021 119.907 53.0882C120.593 52.7456 121.106 52.403 121.62 51.8892C122.134 51.3753 122.648 50.8614 122.991 50.1762C123.333 49.491 123.505 48.8058 123.676 48.1206C123.847 47.4354 124.019 46.7503 124.361 46.2364C124.704 45.5512 125.046 45.0373 125.389 44.6947C125.731 44.1808 126.245 43.8382 126.588 43.3243C127.273 42.4679 127.958 41.954 128.472 41.4401C128.643 41.2688 128.986 41.0975 128.986 40.9262C129.157 40.9262 129.157 40.7549 129.157 40.7549C129.157 40.7549 129.157 40.7549 128.986 40.9262C128.815 41.0975 128.644 41.0975 128.301 41.2688C127.787 41.6114 127.102 42.2965 126.245 42.9817C125.903 43.3243 125.389 43.8382 125.046 44.1808C124.532 44.6947 124.19 45.2086 123.847 45.8938C123.505 46.579 123.333 47.2641 123.162 47.9493C122.991 48.6345 122.819 49.3197 122.477 50.0049C122.134 50.6901 121.792 51.204 121.106 51.7178C120.593 52.2317 119.907 52.5743 119.394 52.9169C118.708 53.2595 118.194 53.6021 117.681 53.9447C117.167 54.2873 116.653 54.4586 116.139 54.8012C115.111 55.1438 114.255 55.4864 113.569 55.4864C113.569 55.4864 113.398 55.4864 113.227 55.4864ZM132.241 42.8104C132.241 44.0095 132.241 45.2086 131.898 46.579C131.213 48.9771 129.671 51.5466 127.444 53.6021C125.218 55.829 122.819 57.3706 120.421 58.0558C119.907 58.2271 119.565 58.2271 119.051 58.3984C116.824 58.741 114.597 57.8845 112.884 56.3428C111.343 54.8012 110.486 52.403 110.829 50.1762C110.829 49.6623 111 49.3197 111.171 48.8058C111.856 46.4077 113.398 43.8382 115.625 41.7827C117.852 39.5558 120.25 38.0142 122.648 37.329C123.847 36.9864 125.218 36.8151 126.417 36.9864C129.5 36.9864 132.069 39.5558 132.241 42.8104ZM129.329 40.0697C127.787 40.0697 126.417 40.5836 125.046 41.4401C123.505 42.2966 121.62 43.153 120.764 44.6947C120.079 45.8938 119.907 47.4354 119.222 48.8058C118.537 50.1762 117.681 51.5466 116.481 52.5743C115.282 53.6021 114.083 54.2873 112.713 54.9725C114.597 54.9725 116.139 54.2873 117.681 53.4308C119.222 52.5743 121.278 51.7178 122.134 50.0049C122.648 49.1484 122.819 48.1206 122.991 47.0929C123.505 45.5512 124.361 44.1808 125.731 43.153C127.102 41.954 127.958 40.7549 129.329 40.0697Z" fill="#E8E8E1"/>
<path d="M131.384 45.8938C131.727 44.5234 131.727 43.1531 131.556 41.7827C132.241 44.6947 131.384 47.7781 129.843 50.1762C127.958 53.2596 125.046 56.0003 121.62 57.1994C120.421 57.7132 119.051 57.8846 117.852 57.8846C120.593 57.8846 123.333 56.3429 125.389 54.6299C128.13 52.4031 130.528 49.3197 131.384 45.8938Z" fill="#231F20"/>
<path d="M130.528 151.584C131.042 152.611 131.213 152.783 130.699 152.954L124.704 156.209L118.88 145.588C118.88 145.588 118.708 145.246 119.222 145.074L125.218 141.648C125.731 142.676 125.903 142.847 125.56 143.019L121.62 145.246L123.505 148.5L127.273 146.445C127.787 147.472 127.958 147.644 127.616 147.815L124.19 149.699L126.588 153.982L130.528 151.584Z" fill="#E8E8E1"/>
<path d="M125.218 41.2688C126.588 40.5837 127.787 39.8985 129.5 39.8985C128.13 40.755 127.273 41.7827 125.903 42.9818C124.704 44.1809 123.676 45.38 123.162 46.9216C122.819 47.9494 122.648 48.8059 122.306 49.8337C121.449 51.5466 119.565 52.4031 117.852 53.2596C116.31 54.1161 114.768 54.8013 112.884 54.8013C114.255 54.1161 115.282 53.4309 116.653 52.4031C117.852 51.3753 118.708 50.005 119.393 48.6346C120.079 47.2642 120.079 45.8939 120.935 44.5235C121.792 42.9818 123.505 42.1253 125.218 41.2688Z" fill="#231F20"/>
<path d="M129.329 40.7549C128.986 40.9262 128.815 41.0975 128.643 41.2688C128.13 41.6114 127.444 42.2966 126.759 43.1531C126.417 43.4957 125.903 44.0096 125.56 44.5234C125.217 45.0373 124.875 45.5512 124.532 46.0651C124.19 46.7503 124.018 47.2642 123.847 47.9494C123.676 48.6346 123.505 49.3197 123.162 50.0049C122.819 50.6901 122.305 51.3753 121.792 51.7179C121.278 52.2318 120.593 52.5744 120.079 52.917C119.565 53.2595 118.88 53.6021 118.366 53.9447C117.852 54.2873 117.167 54.4586 116.653 54.6299C115.625 54.9725 114.768 55.1438 114.083 55.3151C114.768 55.3151 115.625 54.9725 116.653 54.6299C117.167 54.4586 117.68 54.116 118.194 53.7734C118.708 53.4308 119.393 53.0883 119.907 52.7457C120.421 52.4031 121.106 52.0605 121.62 51.5466C122.134 51.0327 122.648 50.5188 122.991 49.8336C123.333 49.1484 123.505 48.4632 123.676 47.7781C123.847 47.0929 124.018 46.4077 124.361 45.7225C124.704 45.0373 125.046 44.5234 125.56 44.0095C126.074 43.4957 126.417 43.1531 126.759 42.8105C127.444 41.954 128.301 41.4401 128.815 41.0975C128.815 41.0975 128.986 40.9262 129.329 40.7549Z" fill="#231F20"/>
<path d="M127.102 130.172C127.102 130.172 127.445 137.023 112.371 137.709C112.371 137.709 105.005 138.223 102.949 133.255C102.607 132.398 101.921 131.713 101.065 131.542C100.38 131.371 99.352 131.199 97.8104 131.199C97.8104 131.199 81.7085 131.371 76.3983 132.398C71.2594 133.426 63.7224 135.824 57.727 130.514C57.3844 130.172 57.3844 129.829 57.727 129.486C63.5511 124.176 71.2594 126.746 76.3983 127.602C81.7085 128.63 97.8104 128.801 97.8104 128.801C99.1807 128.801 100.38 128.63 101.065 128.459C101.921 128.116 102.607 127.602 102.949 126.746C105.176 121.778 112.371 122.292 112.371 122.292C127.445 123.148 127.102 130.172 127.102 130.172ZM122.134 125.033C120.421 124.176 118.537 123.662 116.482 123.32C114.083 122.977 111.514 122.635 108.945 123.148C107.06 123.491 105.347 124.348 104.148 125.889C103.634 126.574 103.292 127.431 102.607 128.116C101.75 128.801 100.722 129.144 99.6946 129.144C97.2965 129.486 94.727 129.144 92.3289 129.144C89.7594 128.973 87.19 128.973 84.6205 128.801C82.2224 128.63 79.653 128.459 77.2548 128.287C74.8567 127.945 72.6298 127.431 70.2316 127.088C68.0048 126.746 65.778 126.574 63.5511 127.088C61.6668 127.431 59.9539 128.459 58.5835 129.658C60.4678 128.459 62.1807 127.431 64.4076 127.088C66.977 126.746 69.5465 127.088 72.1159 127.602C74.5141 128.116 76.9122 128.63 79.3104 128.801C81.7085 128.973 84.278 129.144 86.6761 129.315C89.2455 129.486 91.6437 129.486 94.2131 129.658C96.44 129.658 99.1807 130.172 101.408 129.315C102.435 128.973 103.121 128.287 103.634 127.431C103.977 126.917 104.32 126.232 104.834 125.718C106.204 124.005 108.773 123.491 110.829 123.32C114.597 122.977 118.537 123.834 122.134 125.033Z" fill="#E8E8E1"/>
<path d="M124.875 18.1438C125.732 18.6577 126.245 19.6855 125.903 20.542C125.389 21.3984 124.361 21.9123 123.505 21.3984C122.648 21.0558 122.134 19.8568 122.648 19.0003C122.82 18.1438 123.847 17.8012 124.875 18.1438Z" fill="#E8E8E1"/>
<path d="M125.731 161.69C126.074 162.547 125.731 163.746 124.704 164.088C123.847 164.431 122.648 164.088 122.305 163.232C121.792 162.375 122.305 161.176 123.162 160.834C124.19 160.32 125.389 160.662 125.731 161.69Z" fill="#E8E8E1"/>
<path d="M118.88 154.324C119.907 157.236 117.852 159.121 114.94 160.148L111.514 161.348L107.574 149.871C107.574 149.699 107.574 149.528 108.259 149.357L111 148.5C113.227 147.815 115.796 147.301 116.481 149.528C117.167 151.412 115.968 152.612 114.768 153.125C116.139 152.612 118.194 152.44 118.88 154.324ZM114.597 158.949C115.968 158.436 116.824 157.236 116.139 155.352C115.625 153.639 114.426 153.811 113.056 154.324L111.856 154.667L113.398 159.292L114.597 158.949ZM112.884 153.125C114.083 152.783 114.597 151.755 114.255 150.556C113.741 149.186 112.713 149.186 111.685 149.528L110.315 150.042L111.514 153.639L112.884 153.125Z" fill="#E8E8E1"/>
<path d="M116.995 15.0605C118.023 15.4031 118.537 16.4309 118.194 17.4587C117.852 18.4864 116.824 19.0003 115.796 18.6577C114.769 18.3151 114.255 17.2874 114.597 16.2596C115.111 15.4031 116.139 14.8892 116.995 15.0605Z" fill="#E8E8E1"/>
<path d="M118.194 164.773C118.537 165.801 118.023 166.829 116.995 167.172C115.968 167.514 114.94 167 114.597 165.973C114.255 164.945 114.769 163.917 115.796 163.574C116.824 163.232 117.852 163.746 118.194 164.773Z" fill="#E8E8E1"/>
<path d="M116.481 123.32C118.366 123.662 120.421 124.005 122.134 125.033C118.537 123.662 114.597 122.977 111 123.148C108.944 123.32 106.375 124.005 105.005 125.546C104.491 126.06 104.319 126.746 103.806 127.259C103.292 128.116 102.435 128.801 101.579 129.144C99.3519 130 96.6111 129.658 94.3843 129.486C91.8148 129.486 89.4167 129.315 86.8472 129.144C84.4491 128.972 81.8796 128.972 79.4815 128.63C77.0834 128.458 74.6852 127.773 72.2871 127.431C69.7176 126.917 67.1482 126.574 64.5787 126.917C62.3519 127.259 60.4676 128.116 58.7546 129.486C60.2963 128.287 61.838 127.259 63.7222 126.917C65.9491 126.403 68.1759 126.574 70.4028 126.917C72.8009 127.259 75.0278 127.945 77.4259 128.116C79.8241 128.459 82.2222 128.63 84.7917 128.63C87.3611 128.801 89.9306 128.801 92.5 128.972C94.8982 128.972 97.4676 129.315 99.8657 128.972C100.894 128.801 101.921 128.63 102.778 127.945C103.463 127.259 103.806 126.403 104.319 125.718C105.519 124.176 107.232 123.32 109.116 122.977C111.514 122.806 114.083 122.977 116.481 123.32Z" fill="#231F20"/>
<path d="M115.111 80.8382C115.454 80.8382 115.625 81.0095 115.625 81.5234C115.625 82.0373 115.454 82.5512 114.94 83.2364C114.426 83.9216 113.912 84.2642 113.227 84.2642C112.542 84.2642 111.685 84.2642 110.486 84.2642C110.315 87.1762 110.315 89.5743 110.315 91.6299L110.657 103.107C110.657 105.505 110.315 107.56 109.458 109.445C108.773 111.329 107.745 112.699 106.718 113.556C104.491 115.44 102.435 116.639 100.722 116.982L99.5231 117.153C98.838 117.153 98.4954 116.982 98.4954 116.639L98.838 115.783C102.264 111.843 103.806 102.422 103.806 87.3475C103.806 85.9771 103.806 84.9493 103.806 84.2642C102.778 84.2642 101.921 84.2642 100.894 84.4355C100.38 84.4355 100.208 84.2642 100.208 83.7503L100.38 81.5234C100.38 81.1808 100.722 81.0095 101.407 81.0095H103.806V77.241L103.977 71.7595C103.977 71.5882 103.977 71.2456 104.148 70.903C104.319 70.5605 104.833 70.0466 105.69 69.3614C106.546 68.6762 107.917 68.1623 109.63 67.4771C111.343 66.9632 112.884 66.6206 114.083 66.6206C115.282 66.6206 115.968 66.9632 115.968 67.4771C115.968 67.6484 115.796 67.991 115.282 67.991C113.912 68.3336 112.884 69.3614 112.028 70.903C111.171 72.616 110.829 75.3568 110.829 79.2966V80.8382C112.884 81.0095 114.426 81.0095 115.111 80.8382Z" fill="#E8E8E1"/>
<path d="M108.945 13.0049C109.972 13.1762 110.658 14.204 110.315 15.2318C110.144 16.2595 109.116 16.9447 108.088 16.6021C107.06 16.4308 106.546 15.4031 106.718 14.3753C107.06 13.3475 107.917 12.8336 108.945 13.0049Z" fill="#E8E8E1"/>
<path d="M110.315 167C110.486 168.028 109.801 169.056 108.944 169.227C107.917 169.398 106.889 168.885 106.718 167.857C106.546 166.829 107.231 165.973 108.088 165.63C109.116 165.459 110.144 165.973 110.315 167Z" fill="#E8E8E1"/>
<path d="M102.606 34.2456C103.634 38.8706 103.463 44.1808 101.579 48.6345C100.722 50.5188 99.523 52.2317 97.9813 53.4308C101.065 50.8614 102.264 46.579 102.606 42.6391C103.12 38.0141 102.435 32.704 99.8656 28.7642C98.6665 26.8799 97.2961 25.3382 95.4119 24.3104C99.1804 26.1947 101.579 30.1345 102.606 34.2456Z" fill="#231F20"/>
<path d="M100.722 11.6346C101.75 11.8059 102.435 12.6624 102.435 13.6901C102.264 14.7179 101.407 15.4031 100.38 15.4031C99.3519 15.2318 98.6667 14.3753 98.6667 13.3476C98.838 12.3198 99.6945 11.6346 100.722 11.6346Z" fill="#E8E8E1"/>
<path d="M102.264 168.542C102.435 169.57 101.579 170.426 100.551 170.598C99.5234 170.769 98.6669 169.912 98.4956 168.885C98.3243 167.857 99.1808 167 100.209 166.829C101.408 166.829 102.264 167.514 102.264 168.542Z" fill="#E8E8E1"/>
<path d="M91.8146 55.3151L91.9859 55.1438C92.1572 54.9725 92.3285 54.8012 92.6711 54.4586C93.185 53.7735 94.0415 52.7457 94.5554 51.3753C94.898 50.6901 95.0693 50.0049 95.4119 49.1484C95.7545 48.292 95.9257 47.4355 96.097 46.579C96.2683 45.7225 96.6109 44.6947 96.6109 43.8382C96.6109 42.8105 96.6109 41.7827 96.2684 40.9262C95.9258 39.8984 95.4119 39.042 94.898 38.1855C94.3841 37.329 93.8702 36.4725 93.6989 35.616C93.3563 34.7596 93.185 33.9031 93.185 33.0466C93.185 32.1901 93.185 31.5049 93.185 30.6484C93.185 29.1068 93.185 27.9077 93.185 27.0512C93.185 26.5373 93.3563 26.366 93.3563 26.0234C93.3563 25.8521 93.3563 25.8522 93.3563 25.6809C93.3563 25.6809 93.3563 25.8521 93.3563 26.0234C93.3563 26.1947 93.185 26.5373 93.185 27.0512C93.0137 27.9077 93.0137 29.1068 93.0137 30.6484C93.0137 31.3336 93.0137 32.1901 93.0137 33.0466C93.0137 33.9031 93.185 34.7596 93.5276 35.7873C93.8702 36.6438 94.2128 37.5003 94.7267 38.3568C95.2406 39.2133 95.7544 40.0697 95.9257 40.9262C96.2683 41.7827 96.4396 42.8105 96.2684 43.667C96.2684 44.6947 96.097 45.5512 95.7545 46.4077C95.5832 47.2642 95.2406 48.1207 95.0693 48.9771C94.898 49.8336 94.5554 50.5188 94.3841 51.204C93.8702 52.5744 93.185 53.6021 92.6711 54.2873C92.4998 54.6299 92.1572 54.8012 91.9859 54.9725C91.9859 55.1438 91.8146 55.3151 91.8146 55.3151ZM101.236 28.9355C102.949 31.8475 103.805 35.7873 103.805 39.8985C103.805 44.0096 102.949 47.9494 101.236 50.8614C100.893 51.3753 100.551 51.8892 100.208 52.4031C98.3239 54.8012 95.4119 56.1716 92.3285 56.1716C89.2452 56.1716 86.5044 54.8012 84.4489 52.4031C84.1063 51.8892 83.7637 51.3753 83.4211 50.8614C81.7082 47.9494 80.8517 44.0096 80.8517 39.8985C80.8517 35.7873 81.7082 31.8475 83.4211 28.9355C84.2776 27.3938 85.3054 26.1947 86.5044 24.9957C89.7591 22.0836 94.7267 22.0836 97.9813 24.9957C99.3517 26.1947 100.379 27.5651 101.236 28.9355ZM101.579 48.6345C103.463 44.1808 103.634 38.8707 102.606 34.2457C101.75 30.1346 99.3517 26.1947 95.5832 24.3105C97.4674 25.3383 99.0091 27.0512 100.037 28.7642C102.606 32.8753 103.12 38.0142 102.778 42.6392C102.435 46.579 101.236 50.8614 98.1526 53.4308C99.523 52.2318 100.722 50.5188 101.579 48.6345ZM94.3841 48.6345C95.0693 46.2364 96.097 43.667 95.2406 41.2688C94.898 40.0697 94.0415 38.8707 93.3563 37.6716C92.3285 35.616 91.9859 33.5605 92.1572 31.3336C92.3285 29.1068 91.9859 27.2225 92.6711 25.167C91.1295 26.7086 90.4443 28.4216 89.9304 30.4772C89.2452 32.704 88.3887 35.2734 88.9026 37.6716C89.4165 39.5559 90.6156 41.0975 91.3007 42.9818C91.9859 44.866 92.4998 46.9216 92.3285 49.1484C92.1572 51.3753 91.6434 53.0882 91.1295 54.9725C92.8424 53.0882 93.6989 51.0327 94.3841 48.6345Z" fill="#E8E8E1"/>
<path d="M99.5232 67.6485C99.5232 67.8198 99.3519 68.1624 98.838 68.1624C97.4676 68.505 96.4398 69.5327 95.5834 71.0744C94.7269 72.7874 94.213 75.5281 94.213 79.4679V81.0096C96.6111 81.0096 98.1528 80.8383 98.838 80.667C99.1806 80.667 99.3519 80.8383 99.3519 81.3522C99.3519 81.8661 99.1806 82.38 98.6667 83.0651C98.1528 83.7503 97.6389 84.0929 96.7824 84.0929C96.0972 84.0929 95.2408 84.0929 94.0417 84.0929C94.0417 87.0049 93.8704 89.4031 93.8704 91.4586L94.213 102.935C94.213 105.334 93.8704 107.389 93.0139 109.273C92.3287 111.158 91.301 112.528 90.2732 113.385C88.0463 115.269 85.9908 116.468 84.2778 116.811L83.0787 116.982C82.3935 116.982 82.051 116.811 82.051 116.468L82.3936 115.611C85.8195 111.672 87.3611 102.25 87.3611 87.1762C87.3611 85.8059 87.3611 84.7781 87.3611 84.0929C86.3334 84.0929 85.4769 84.0929 84.4491 84.2642C83.9352 84.2642 83.5926 84.0929 83.5926 83.579L83.7639 81.3522C83.7639 81.1809 83.7639 81.1809 83.9352 81.1809C84.1065 81.0096 84.4491 80.8383 84.7917 80.8383H87.1899V77.0698L87.3611 71.5883C87.3611 71.417 87.3611 71.0744 87.5324 70.7318C87.7037 70.3892 88.2176 69.8753 89.0741 69.1901C89.9306 68.5049 91.301 67.9911 93.0139 67.3059C94.7269 66.792 96.2686 66.4494 97.4676 66.4494C98.838 66.792 99.5232 67.1346 99.5232 67.6485Z" fill="#E8E8E1"/>
<path d="M88.7316 154.153C88.7316 154.153 89.2455 157.408 89.2455 159.292L89.4168 163.403C89.4168 163.746 89.2455 163.746 87.0186 163.746L86.8474 151.584C86.8474 151.241 87.0186 151.241 87.3612 151.241H89.0742L91.8149 156.551C92.1575 157.237 92.6714 158.436 92.6714 158.607C92.6714 158.607 93.1853 157.236 93.5279 156.723L96.0973 151.584C96.2686 151.412 96.2686 151.241 96.6112 151.241H98.4955V163.403C98.4955 163.746 98.4955 163.746 96.0973 163.746V159.463C96.0973 157.75 96.6112 154.838 96.6112 154.153C96.0973 155.523 95.0696 157.75 94.727 158.093L93.1853 160.834C93.1853 161.005 93.014 161.005 92.8427 161.005H91.8149L90.2733 158.264C90.4446 157.75 89.4168 155.523 88.7316 154.153Z" fill="#E8E8E1"/>
<path d="M96.2685 40.755C96.6111 41.6115 96.7824 42.6392 96.6111 43.667C96.4398 44.6948 96.2685 45.5512 96.0972 46.4077C95.9259 47.2642 95.5833 48.1207 95.4121 48.9772C95.2408 49.8337 94.8982 50.5188 94.5556 51.204C93.8704 52.5744 93.1852 53.6022 92.6713 54.2874C92.3287 54.63 92.1574 54.8012 91.9861 54.9725C92.1574 54.8012 92.3287 54.4587 92.6713 54.2874C93.1852 53.6022 93.8704 52.5744 94.3843 51.204C94.7269 50.5188 94.8981 49.8337 95.0694 48.9772C95.412 48.1207 95.5833 47.2642 95.7546 46.4077C95.9259 45.5512 96.0972 44.5235 96.2685 43.667C96.2685 42.6392 96.2685 41.7827 95.9259 40.9263C95.5833 40.0698 95.0694 39.2133 94.7269 38.3568C94.213 37.5003 93.6991 36.6438 93.5278 35.7874C93.1852 34.9309 93.0139 33.9031 93.0139 33.0466C93.0139 32.1902 93.0139 31.3337 93.0139 30.6485C93.0139 29.1068 93.0139 27.9077 93.1852 27.0513C93.1852 26.5374 93.3565 26.3661 93.3565 26.0235C93.3565 25.8522 93.3565 25.8522 93.3565 25.6809C93.3565 25.6809 93.3565 25.8522 93.3565 26.0235C93.3565 26.1948 93.1852 26.5374 93.1852 27.0513C93.0139 27.9077 93.0139 29.1068 93.1852 30.6485C93.1852 31.3337 93.1852 32.1902 93.1852 33.0466C93.1852 33.9031 93.3565 34.7596 93.6991 35.6161C94.0417 36.4726 94.3843 37.329 94.8982 38.1855C95.412 39.042 95.9259 39.8985 96.2685 40.755Z" fill="#231F20"/>
<path d="M95.2407 41.2688C95.9259 43.667 95.0694 46.2364 94.3842 48.6346C93.699 51.0327 92.8425 53.0883 91.1296 54.8012C91.6435 52.917 92.1574 51.204 92.3286 48.9771C92.4999 46.7503 91.986 44.8661 91.3009 42.8105C90.6157 40.9262 89.4166 39.3846 88.9027 37.5003C88.3888 35.1022 89.074 32.704 89.9305 30.3059C90.6157 28.2503 91.1296 26.5373 92.6712 24.9957C92.1573 27.0512 92.3286 28.9355 92.1573 31.1623C91.986 33.3892 92.3286 35.4447 93.3564 37.5003C94.0416 38.8707 94.8981 40.0697 95.2407 41.2688Z" fill="#231F20"/>
<path d="M92.3287 11.2921C93.3564 11.2921 94.2129 12.1486 94.2129 13.1763C94.2129 14.2041 93.3564 15.0606 92.3287 15.0606C91.3009 15.0606 90.4444 14.2041 90.4444 13.1763C90.4444 12.1486 91.3009 11.2921 92.3287 11.2921Z" fill="#E8E8E1"/>
<path d="M92.3287 167.343C93.3564 167.343 94.2129 168.199 94.2129 169.227C94.2129 170.255 93.3564 171.111 92.3287 171.111C91.3009 171.111 90.4444 170.255 90.4444 169.227C90.4444 168.199 91.3009 167.343 92.3287 167.343Z" fill="#E8E8E1"/>
<path d="M85.9908 13.3475C86.1621 14.3753 85.3056 15.2318 84.2778 15.4031C83.2501 15.5744 82.3935 14.7179 82.2223 13.6901C82.051 12.6624 82.9074 11.8059 83.9352 11.6346C84.963 11.4633 85.9908 12.3198 85.9908 13.3475Z" fill="#E8E8E1"/>
<path d="M84.449 166.829C85.4768 167 86.1619 167.857 86.1619 168.885C86.1619 169.912 85.1342 170.598 84.1064 170.598C83.0786 170.598 82.3934 169.57 82.3934 168.542C82.3934 167.514 83.4212 166.829 84.449 166.829Z" fill="#E8E8E1"/>
<path d="M83.764 150.898L81.0232 162.547C80.3381 162.718 78.6251 162.547 76.7408 162.204C76.5695 162.204 76.3982 162.033 76.2269 162.033C71.7732 161.005 71.6019 159.121 71.9445 157.236L73.8288 148.843C74.0001 148.672 74.1714 148.672 76.2269 149.185L74.3427 157.75C74.0001 159.121 74.1714 160.148 76.5696 160.662C77.5973 160.834 78.6251 161.005 79.139 160.834L81.5371 150.385C81.5371 150.385 81.5371 150.385 83.764 150.898Z" fill="#E8E8E1"/>
<path d="M82.051 81.3522C82.051 81.5235 81.8797 81.6948 81.5371 81.8661C80.3381 82.2087 79.139 82.7226 77.9399 83.4078C76.7408 84.093 76.2269 84.6069 76.2269 84.7782L76.7408 85.1208C78.2825 85.8059 79.3103 86.8337 80.1668 88.3754C81.0232 89.917 81.3658 91.1161 81.5371 92.3152L81.7084 94.0282C81.7084 97.7967 80.5093 100.88 77.9399 103.449C75.3705 105.848 71.9445 107.047 67.6621 107.047C65.4353 107.047 63.551 106.704 62.0094 106.019C60.4677 105.334 59.2686 104.649 58.4121 103.792C57.727 102.936 57.0418 102.079 56.5279 101.051C56.014 99.6809 55.6714 98.1393 55.6714 96.5976C55.6714 96.4263 55.6714 96.4263 55.6714 96.255C55.6714 94.8846 56.014 93.5143 56.5279 91.9726C57.2131 90.4309 57.8983 89.4032 58.5834 88.5467C59.4399 87.8615 60.2964 87.1763 61.3242 86.8337C62.6945 86.3198 63.551 85.9772 64.4075 85.9772C64.5788 85.9772 64.7501 85.9772 64.9214 85.9772C65.4353 85.9772 65.6066 86.1485 65.6066 86.3198L65.264 86.8337C64.2362 87.8615 63.551 89.0606 63.0371 90.7735C62.5232 92.3152 62.352 93.8569 62.352 95.0559C62.352 96.255 62.5233 97.4541 62.8659 98.8245C63.2084 100.024 63.7223 100.88 64.0649 101.565C64.5788 102.25 65.0927 102.593 65.6066 102.936C66.4631 103.449 67.4908 103.621 68.3473 103.621C69.3751 103.621 70.2316 103.278 71.2594 102.593C72.1158 101.908 72.801 101.051 73.3149 100.024C74.1714 98.1393 74.514 96.0837 74.514 94.1995C74.514 90.9448 73.4862 88.5467 71.6019 86.6624C70.0603 85.292 67.8334 84.4356 65.0927 84.093C64.4075 83.9217 63.7223 83.9217 62.8659 83.9217C61.6668 83.9217 60.8103 83.9217 60.2964 84.093C59.7825 84.2643 59.4399 83.9217 59.4399 83.7504C59.4399 83.5791 59.6112 83.2365 59.7825 83.0652C62.6945 80.8384 67.6621 79.6393 74.6853 79.6393C77.0834 79.6393 78.9677 79.8106 80.3381 80.1532L81.0232 80.3245C81.7084 81.0096 82.051 81.1809 82.051 81.3522Z" fill="#E8E8E1"/>
<path d="M77.9395 14.3753C78.1108 15.4031 77.4257 16.4308 76.5692 16.6021C75.5414 16.7734 74.5136 16.0882 74.3423 15.2318C74.171 14.204 74.8562 13.1762 75.7127 13.0049C76.5692 12.8336 77.7683 13.3475 77.9395 14.3753Z" fill="#E8E8E1"/>
<path d="M76.5697 165.63C77.5974 165.801 78.2826 166.829 77.94 167.857C77.7687 168.885 76.741 169.57 75.7132 169.227C75.5419 169.227 75.5419 169.227 75.3706 169.056C74.5141 168.713 74.0002 167.857 74.1715 167C74.3428 166.144 75.1993 165.459 76.0558 165.459C76.2271 165.63 76.3984 165.63 76.5697 165.63Z" fill="#E8E8E1"/>
<path d="M55.3286 40.755C55.3286 40.755 55.4999 40.755 55.4999 40.9263C55.6712 41.0976 55.8425 41.0976 56.0138 41.4402C56.5276 41.7828 57.2128 42.468 57.898 43.3245C58.2406 43.6671 58.7545 44.1809 59.0971 44.6948C59.4397 45.2087 59.7823 45.7226 60.1249 46.2365C60.4674 46.9217 60.6387 47.4356 60.81 48.1208C60.9813 48.8059 61.1526 49.4911 61.4952 50.1763C61.8378 50.8615 62.3517 51.5467 62.8656 51.8893C63.3795 52.2319 64.0647 52.7458 64.5786 53.0884C65.2638 53.431 65.7776 53.7735 66.2915 54.1161C66.8054 54.4587 67.3193 54.63 67.8332 54.8013C68.861 55.1439 69.7174 55.3152 70.4026 55.4865C70.7452 55.4865 70.9165 55.4865 71.0878 55.4865C70.9165 55.4865 70.5739 55.4865 70.4026 55.4865C69.7174 55.4865 68.861 55.1439 67.8332 54.8013C67.3193 54.63 66.8054 54.2874 66.2915 53.9448C65.7776 53.6023 65.0925 53.2597 64.5786 52.9171C64.0647 52.5745 63.3795 52.2319 62.8656 51.718C62.3517 51.2041 61.8378 50.6902 61.6665 50.005C61.3239 49.3198 61.1526 48.6347 60.9813 47.9495C60.81 47.2643 60.6388 46.5791 60.2962 45.8939C59.9536 45.2087 59.611 44.6949 59.0971 44.181C58.5832 43.6671 58.2406 43.3245 57.898 42.9819C57.0415 42.1254 56.3563 41.6115 55.8424 41.2689C55.4999 41.0976 55.3286 40.9263 55.1573 40.9263C55.4999 40.9263 55.3286 40.755 55.3286 40.755ZM53.4443 41.0976C52.5878 44.181 53.273 47.4356 54.986 50.005C56.8702 53.0884 59.7823 55.8291 63.2082 57.0282C64.4073 57.5421 65.7776 57.7134 66.9767 57.7134C64.236 57.7134 61.4952 56.1717 59.4397 54.4587C56.6989 52.2319 54.3008 49.1485 53.4443 45.7226C53.1017 44.3522 52.9304 42.6393 53.4443 41.0976ZM73.9999 50.1763C74.3425 52.4032 73.486 54.63 71.9443 56.343C70.4026 57.8847 68.0045 58.7411 65.7776 58.3985C65.2638 58.3985 64.9212 58.2272 64.4073 58.0559C62.0091 57.3708 59.4397 55.8291 57.3841 53.6023C55.1573 51.3754 53.6156 48.9772 52.9304 46.5791C52.5878 45.38 52.4165 44.0097 52.5878 42.8106C52.7591 39.556 55.3286 36.9865 58.5832 36.8152C59.7823 36.8152 60.9813 36.9865 62.3517 37.1578C64.7499 37.843 67.3193 39.3847 69.3748 41.6115C71.4304 43.8384 73.1434 46.2365 73.8286 48.6347C73.8286 49.1485 73.9999 49.6624 73.9999 50.1763ZM66.8054 53.2596C68.3471 54.1161 69.8888 54.8013 71.773 54.8013C70.4026 54.1161 69.3749 53.4309 68.0045 52.4032C66.8054 51.3754 65.9489 50.005 65.2637 48.6347C64.5786 47.2643 64.5786 45.8939 63.7221 44.5235C62.8656 42.9819 60.9813 42.1254 59.4397 41.2689C58.0693 40.5837 56.6989 39.8986 55.1573 39.8986C56.5276 40.755 57.3841 41.7828 58.7545 42.9819C59.9536 44.1809 60.9813 45.38 61.4952 46.9217C61.8378 47.9495 62.0091 48.8059 62.3517 49.8337C63.2082 51.5467 65.2637 52.4032 66.8054 53.2596Z" fill="#E8E8E1"/>
<path d="M71.773 54.8013C69.8887 54.8013 68.347 54.1161 66.8054 53.2596C65.2637 52.4031 63.2081 51.5466 62.3517 49.8337C61.8378 48.9772 61.6665 47.9494 61.4952 46.9216C60.9813 45.38 59.9535 44.0096 58.7544 42.9818C57.5554 41.7827 56.6989 40.755 55.1572 39.8985C56.6989 39.8985 58.0693 40.4124 59.4396 41.2688C60.9813 42.1253 62.8656 42.9818 63.722 44.5235C64.4072 45.7226 64.5785 47.2642 65.2637 48.6346C65.9489 50.005 66.6341 51.3753 68.0044 52.4031C69.3748 53.4309 70.4026 54.1161 71.773 54.8013Z" fill="#231F20"/>
<path d="M71.6017 55.4864C71.4304 55.4864 71.0878 55.4864 70.9165 55.4864C70.2313 55.4864 69.3748 55.3151 68.347 54.8012C67.8332 54.6299 67.3192 54.2873 66.8054 54.116C66.2915 53.7734 65.6063 53.6021 65.0924 53.0883C64.5785 52.7457 63.8933 52.4031 63.3794 51.8892C62.8655 51.3753 62.3517 50.8614 62.0091 50.1762C61.6665 49.491 61.4952 48.8058 61.3239 48.1206C61.1526 47.4355 60.9813 46.7503 60.6387 46.2364C60.2961 45.5512 59.9535 45.0373 59.6109 44.6947C59.2683 44.1808 58.7544 43.8383 58.4119 43.3244C57.7267 42.4679 57.0415 41.954 56.5276 41.4401C56.3563 41.2688 56.0137 41.0975 56.0137 40.9262L55.8424 40.7549C55.8424 40.7549 56.0137 40.7549 56.0137 40.9262C56.185 41.0975 56.3563 41.0975 56.6989 41.2688C57.2128 41.6114 57.898 42.2966 58.7544 42.9818C59.097 43.3244 59.6109 43.8383 59.9535 44.1809C60.4674 44.6947 60.81 45.2086 61.1526 45.8938C61.4952 46.579 61.6665 47.2642 61.8378 47.9494C62.0091 48.6346 62.1804 49.3197 62.523 50.0049C62.8655 50.6901 63.2082 51.204 63.722 51.7179C64.2359 52.2318 64.9211 52.5744 65.435 52.9169C65.9489 53.2595 66.6341 53.6021 67.148 53.9447C67.6619 54.2873 68.1757 54.4586 68.6896 54.8012C69.7174 55.1438 70.5739 55.4864 71.2591 55.4864C71.0878 55.4864 71.4304 55.4864 71.6017 55.4864Z" fill="#231F20"/>
<path d="M70.7453 147.301L70.574 147.473L66.1203 158.435C65.949 158.778 65.949 158.607 63.8934 157.75L68.3471 146.787V146.616C68.5184 146.445 68.6897 146.445 70.7453 147.301Z" fill="#E8E8E1"/>
<path d="M70.0601 16.4308C70.4027 17.4586 69.8888 18.4864 68.861 18.829C67.8333 19.1716 66.8055 18.6577 66.4629 17.6299C66.1203 16.6022 66.6342 15.5744 67.6619 15.2318C68.6897 14.8892 69.7175 15.4031 70.0601 16.4308Z" fill="#E8E8E1"/>
<path d="M68.861 163.574C69.8888 163.917 70.4027 164.945 70.0601 165.973C69.7175 167 68.6897 167.514 67.6619 167.172C66.6342 166.829 66.1203 165.801 66.4629 164.773C66.8055 163.746 67.8333 163.232 68.861 163.574Z" fill="#E8E8E1"/>
<path d="M66.8055 57.8846C65.4351 57.8846 64.2361 57.7133 63.037 57.1994C59.7823 55.829 56.699 53.0883 54.8148 50.1762C53.2731 47.6068 52.4166 44.3521 53.2731 41.2688C52.9305 42.8105 52.9305 44.3522 53.2731 45.8938C53.9583 49.4911 56.5277 52.4031 59.2685 54.6299C61.4953 56.3429 64.0647 57.8846 66.8055 57.8846Z" fill="#231F20"/>
<path d="M55.3286 142.334C55.3286 142.334 53.9583 145.417 52.9305 146.959L50.7036 150.385C50.5323 150.556 50.361 150.556 48.6481 149.357L55.1573 139.079C55.3286 138.908 55.4999 138.908 55.6712 139.079L57.0416 139.935L56.5277 145.931C56.5277 146.616 56.1851 147.986 56.1851 148.158C56.1851 148.158 57.2129 147.301 57.8981 146.959L62.6944 144.047C62.8657 143.875 63.037 143.875 63.2083 144.047L64.7499 145.074L58.2406 155.352C58.0694 155.523 58.0694 155.523 56.0138 154.324L58.412 150.727C59.4397 149.357 61.324 146.959 61.6666 146.616C60.4675 147.473 58.412 148.843 58.0694 149.014L55.3286 150.556C55.1573 150.556 54.986 150.556 54.986 150.556L54.1295 150.042L54.3009 146.787C54.8147 146.273 55.1573 143.875 55.3286 142.334Z" fill="#E8E8E1"/>
<path d="M62.3518 19.0003C62.6944 19.8568 62.3518 21.0558 61.324 21.3984C60.2962 21.9123 59.2684 21.3984 58.9258 20.542C58.5832 19.5142 58.9258 18.4864 59.9536 18.1438C60.8101 17.8012 61.8379 18.1438 62.3518 19.0003Z" fill="#E8E8E1"/>
<path d="M61.3238 160.662C62.1803 161.005 62.6942 162.204 62.3516 163.061C61.8377 163.917 60.8099 164.431 59.9534 163.917C59.097 163.574 58.5831 162.375 58.9257 161.519C59.4396 160.662 60.4673 160.32 61.3238 160.662Z" fill="#E8E8E1"/>
<path d="M54.9864 22.5975C55.5003 23.454 55.1577 24.6531 54.3013 25.167C53.4448 25.6809 52.2457 25.3383 51.7318 24.4818C51.2179 23.6253 51.5605 22.4263 52.417 21.9124C53.2735 21.3985 54.4725 21.7411 54.9864 22.5975Z" fill="#E8E8E1"/>
<path d="M54.3013 157.065C55.1577 157.579 55.5003 158.778 54.9864 159.635C54.4725 160.491 53.2735 160.834 52.417 160.32C51.5605 159.806 51.2179 158.607 51.7318 157.75C52.2457 156.894 53.4448 156.551 54.3013 157.065Z" fill="#E8E8E1"/>
<path d="M48.4766 132.398L53.4442 137.195C53.1016 137.537 52.9303 137.709 52.759 137.709C52.4164 138.051 52.4164 137.88 52.0738 137.709L48.8192 134.454L46.2497 137.195L49.3331 140.278C48.6479 141.135 48.4766 141.306 48.134 140.963L45.3932 138.222L42.1386 141.648L45.7358 145.074C44.8794 145.931 44.8793 145.931 44.5368 145.76L44.0229 145.246L39.7405 141.135L48.134 132.398C47.9627 132.227 48.134 132.056 48.4766 132.398Z" fill="#E8E8E1"/>
<path d="M52.4169 95.5697C52.4169 95.741 52.4169 96.0836 52.4169 96.2549C52.2456 97.7966 51.903 99.1669 51.2179 100.537C50.3614 102.079 49.3336 103.107 48.1345 103.963C46.9354 104.82 45.7364 105.334 44.1947 105.848C39.2271 107.56 34.6021 107.56 30.3197 105.676C28.0929 104.648 26.5512 103.621 25.3521 102.25C24.153 100.88 23.2966 99.3382 22.6114 97.454C21.5836 94.7132 21.0697 91.8012 21.0697 88.7179C21.0697 87.0049 21.241 85.292 21.4123 83.579C21.5836 82.3799 21.7549 81.1808 22.0975 80.1531C22.7827 77.5836 23.8104 75.0142 25.3521 72.616C26.7225 70.2179 28.778 68.3336 31.3475 66.792C33.9169 65.4216 37.0003 64.5651 40.4262 64.5651C41.9679 64.5651 43.5095 64.7364 45.0512 65.2503C46.5928 65.5929 47.9632 66.1068 48.991 66.792C50.0188 67.3058 50.8753 68.3336 51.7318 69.5327C52.4169 70.7318 52.9308 72.2734 52.9308 73.8151C52.9308 75.528 52.4169 77.241 51.3891 78.6114C50.8752 79.2966 50.1901 79.8105 49.1623 80.3243C48.1345 80.8382 46.9354 81.1808 45.5651 81.1808C43.5095 81.1808 41.9678 80.3244 41.1114 78.7827C40.7688 78.0975 40.5975 77.5836 40.5975 76.7271C40.5975 76.042 40.9401 75.528 41.454 75.528C42.1392 75.3567 42.653 75.0142 43.1669 74.329C43.6808 73.6438 44.0234 72.7873 44.0234 71.9308C44.0234 71.2457 43.8521 70.5605 43.3382 70.0466C42.4817 69.0188 41.1114 68.6762 39.5697 68.6762C37.8567 68.6762 36.4864 69.3614 35.116 70.5605C33.7456 71.7595 32.7179 73.4725 32.0327 75.3568C30.6623 79.1253 29.9771 82.7225 29.9771 85.9771C29.9771 89.2318 30.491 91.8012 31.5188 93.6855C32.8892 96.0836 34.4308 97.6253 36.4864 98.4818C37.6854 98.9957 39.2271 99.1669 40.7688 99.1669C43.5095 99.1669 45.9077 98.1392 48.1345 96.0836C48.991 95.2271 49.8475 94.3706 50.3614 93.1716C50.5327 92.829 50.8753 92.6577 51.2179 92.6577C51.903 92.829 52.4169 93.8568 52.4169 95.5697Z" fill="#E8E8E1"/>
<path d="M47.9629 26.8799C48.6481 27.7364 48.3055 28.7642 47.6203 29.4494C46.7638 29.9633 45.5648 29.9633 45.0509 29.1068C44.537 28.2503 44.7083 27.2225 45.3935 26.5374C46.2499 25.8522 47.449 26.0235 47.9629 26.8799Z" fill="#E8E8E1"/>
<path d="M47.6205 152.783C48.477 153.468 48.6483 154.496 47.9631 155.352C47.4492 156.209 46.2502 156.38 45.3937 155.695C44.5372 155.01 44.3659 153.982 45.0511 153.125C45.565 152.269 46.7641 152.097 47.6205 152.783Z" fill="#E8E8E1"/>
<path d="M42.9955 125.547C45.0511 128.459 45.2224 130.514 43.1669 131.885C41.6252 133.084 40.0835 132.741 38.8844 131.885C38.8844 133.084 38.3706 135.139 36.315 137.023C36.1437 137.195 35.9724 137.195 35.2872 136.338C35.1159 135.996 34.7733 135.653 34.4307 135.139C36.6576 133.084 37.1715 131.199 37.1715 130.343C37.0002 130.172 37.0002 130 36.8289 129.829L36.315 128.973L32.3752 131.713C32.2039 131.885 32.2039 131.885 30.8335 130L40.7687 122.977C40.7687 122.977 40.94 122.806 41.2826 123.148L42.9955 125.547ZM41.6252 129.658C42.6529 128.801 42.9955 127.945 42.1391 126.574L41.2826 125.375L37.3428 128.116L38.028 129.144C39.0557 130.514 40.0835 130.686 41.6252 129.658Z" fill="#E8E8E1"/>
<path d="M41.4536 31.8475C42.1388 32.5327 42.1388 33.7317 41.2823 34.4169C40.5971 35.1021 39.3981 35.1021 38.7129 34.2456C38.0277 33.5605 38.0277 32.3614 38.8842 31.6762C39.7407 30.991 40.7685 31.1623 41.4536 31.8475Z" fill="#E8E8E1"/>
<path d="M41.4538 147.644C42.139 148.329 42.3103 149.528 41.6251 150.213C40.9399 150.899 39.7408 151.07 39.0557 150.385C38.8844 150.213 38.7131 150.042 38.5418 149.699C38.1992 149.014 38.3705 148.329 38.8844 147.644C39.3983 147.13 40.5973 146.959 41.4538 147.644Z" fill="#E8E8E1"/>
<path d="M37.3428 115.611C38.8845 118.866 38.5419 120.922 36.3151 121.949C33.5743 123.148 31.8613 121.435 30.491 118.695L29.9771 117.838L25.6947 119.894C25.5234 120.065 25.5234 120.065 24.4956 117.838L35.6299 112.699C35.8012 112.699 35.9725 112.699 36.1438 113.042L37.3428 115.611ZM35.4586 119.551C36.6577 119.037 37.1715 118.181 36.4863 116.639L35.9725 115.269L31.5188 117.324L32.0327 118.523C32.5465 119.894 33.5743 120.408 35.4586 119.551Z" fill="#E8E8E1"/>
<path d="M35.6295 37.5002C36.3147 38.1854 36.486 39.3845 35.8008 40.0697C35.1157 40.7548 33.9166 40.9261 33.2314 40.241C32.5462 39.5558 32.3749 38.3567 33.0601 37.6715C33.7453 36.9863 34.9443 36.815 35.6295 37.5002Z" fill="#E8E8E1"/>
<path d="M35.8011 142.162C36.4862 143.019 36.4862 144.047 35.6297 144.732C34.9446 145.417 33.7455 145.417 33.0603 144.56C32.3751 143.704 32.3751 142.676 33.2316 141.991C33.9168 141.306 35.1159 141.306 35.8011 142.162Z" fill="#E8E8E1"/>
<path d="M30.3193 43.8382C31.1757 44.3521 31.347 45.5512 30.6618 46.4077C30.148 47.2642 28.9489 47.4355 28.0924 46.7503C27.2359 46.0651 27.0646 45.0373 27.7498 44.1809C28.2637 43.3244 29.4628 43.1531 30.3193 43.8382Z" fill="#E8E8E1"/>
<path d="M30.6618 135.824C31.347 136.681 31.0044 137.709 30.3193 138.394C29.4628 138.908 28.2637 138.908 27.7498 138.051C27.0646 137.195 27.2359 136.167 28.0924 135.482C28.9489 134.797 30.148 134.968 30.6618 135.824Z" fill="#E8E8E1"/>
<path d="M25.6944 50.5188C26.5509 51.0327 26.8935 52.2318 26.3796 53.0882C25.8657 53.9447 24.6667 54.2873 23.8102 53.7734C22.9537 53.2595 22.6111 52.0605 23.125 51.204C23.6389 50.3475 24.838 50.0049 25.6944 50.5188Z" fill="#E8E8E1"/>
<path d="M26.3796 129.144C26.8935 130 26.5509 131.199 25.6944 131.713C24.838 132.227 23.6389 131.884 23.125 131.028C22.6111 130.172 22.9537 128.972 23.8102 128.459C24.838 127.945 25.8657 128.287 26.3796 129.144Z" fill="#E8E8E1"/>
<path d="M21.7546 57.7132C22.611 58.0557 23.1249 59.2548 22.611 60.1113C22.2684 61.1391 21.0694 61.4817 20.2129 61.1391C19.1851 60.7965 18.8425 59.5974 19.1851 58.7409C19.8703 57.7132 20.8981 57.1993 21.7546 57.7132Z" fill="#E8E8E1"/>
<path d="M22.7824 122.121C23.125 123.148 22.7824 124.176 21.9259 124.519C21.0694 124.861 19.8704 124.519 19.5278 123.662C19.1852 122.806 19.5278 121.607 20.5555 121.264C21.2407 120.75 22.2685 121.093 22.7824 122.121Z" fill="#E8E8E1"/>
<path d="M18.6712 65.2503C19.699 65.5929 20.2129 66.6207 19.8703 67.6485C19.5277 68.6762 18.4999 69.1901 17.4721 68.8475C16.4444 68.5049 15.9305 67.4772 16.2731 66.4494C16.7869 65.4216 17.8147 64.9077 18.6712 65.2503Z" fill="#E8E8E1"/>
<path d="M19.8703 114.584C20.2129 115.611 19.699 116.639 18.6712 116.982C17.6434 117.324 16.6156 116.81 16.2731 115.783C15.9305 114.755 16.4444 113.727 17.4721 113.384C18.4999 113.213 19.5277 113.727 19.8703 114.584Z" fill="#E8E8E1"/>
<path d="M16.4444 73.1299C17.4722 73.3012 17.986 74.329 17.8148 75.3567C17.6435 76.3845 16.6157 77.0697 15.5879 76.7271C14.5601 76.5558 14.0462 75.528 14.2175 74.5002C14.3888 73.4725 15.4166 72.9586 16.4444 73.1299Z" fill="#E8E8E1"/>
<path d="M17.8148 106.875C17.9861 107.903 17.3009 108.931 16.4444 109.102C15.4167 109.273 14.3889 108.588 14.2176 107.732C14.0463 106.704 14.7315 105.676 15.588 105.505C16.6157 105.334 17.6435 106.019 17.8148 106.875Z" fill="#E8E8E1"/>
<path d="M14.9026 81.1809C15.9304 81.3522 16.6156 82.2087 16.6156 83.2365C16.4443 84.2642 15.5878 84.9494 14.56 84.9494C13.5322 84.7781 12.847 84.093 12.847 83.0652V82.8939C13.0183 81.6948 13.8748 81.0096 14.9026 81.1809Z" fill="#E8E8E1"/>
<path d="M16.6158 98.9957C16.7871 100.023 15.9306 100.88 14.9028 101.051C13.8751 101.223 13.0185 100.366 12.8473 99.3383C12.676 98.3105 13.5324 97.454 14.5602 97.2827C15.588 97.2827 16.4445 98.1392 16.6158 98.9957Z" fill="#E8E8E1"/>
<path d="M14.3892 89.2317C15.4169 89.2317 16.2734 90.0882 16.2734 91.1159C16.2734 92.1437 15.4169 93.0002 14.3892 93.0002C13.3614 93.0002 12.5049 92.1437 12.5049 91.1159C12.5049 90.0882 13.3614 89.2317 14.3892 89.2317Z" fill="#E8E8E1"/>
</svg>
